<svg version="1.1" id="Layer_1" xmlns="http://www.w3.org/2000/svg" xmlns:xlink="http://www.w3.org/1999/xlink" x="0px" y="0px"
	 width="100%" viewBox="0 0 361 324" enable-background="new 0 0 361 324" xml:space="preserve">
<path fill="#000000" opacity="1.000000" stroke="none" 
	d="
M362.000000,115.000000 
	C362.000000,185.307846 362.000000,255.115707 362.000000,324.961792 
	C241.736069,324.961792 121.472122,324.961792 1.104088,324.961792 
	C1.104088,217.108887 1.104088,109.217644 1.104088,1.163201 
	C121.333153,1.163201 241.666565,1.163201 362.000000,1.163201 
	C362.000000,38.861122 362.000000,76.680565 362.000000,115.000000 
M145.037949,112.956276 
	C145.037949,112.956276 145.109116,112.950760 144.924408,112.427711 
	C144.595505,112.344971 144.266586,112.262230 143.481583,112.105118 
	C143.481583,112.105118 143.030548,112.004509 143.001633,111.303604 
	C142.344482,110.849129 141.687317,110.394661 141.004532,109.992615 
	C141.004532,109.992615 141.057602,109.968346 140.841385,109.378777 
	C139.907990,108.563324 138.974609,107.747879 138.013641,106.985901 
	C138.013641,106.985901 138.072174,106.972038 137.925705,106.448090 
	C137.627792,106.258125 137.329895,106.068161 136.857712,105.466179 
	C136.679657,105.207794 136.437973,105.042389 135.838837,104.327339 
	C133.225586,102.593048 130.612335,100.858757 127.777298,98.610825 
	C127.472717,98.405632 127.168137,98.200439 126.906982,97.281616 
	C124.593216,92.840462 121.396500,90.754089 115.931396,90.848877 
	C95.306480,91.206612 74.671776,90.981979 54.040997,91.052788 
	C52.318043,91.058708 50.597076,91.642990 48.234360,92.323669 
	C47.537502,96.566460 46.840641,100.809250 46.027966,105.975777 
	C46.052853,111.969620 46.077740,117.963470 46.003063,124.765495 
	C46.033264,125.849136 46.063469,126.932777 46.005135,128.949219 
	C46.034805,163.957855 46.064476,198.966507 45.999462,234.831863 
	C46.041752,236.552856 46.084042,238.273834 46.031532,240.885849 
	C46.327053,243.967209 46.622570,247.048584 46.926220,250.065414 
	C46.926220,250.065414 46.866253,250.090591 47.201744,250.678497 
	C48.165928,250.478409 49.130116,250.278336 50.050243,250.020569 
	C50.050243,250.020569 49.992580,250.064667 50.541325,249.912033 
	C50.770821,249.616150 51.000317,249.320267 51.725010,248.781769 
	C52.156841,248.201035 52.588669,247.620300 53.726326,246.996964 
	C57.844097,243.499481 62.002895,240.048935 66.070007,236.493500 
	C72.144760,231.183044 78.167023,225.812271 84.189667,220.442551 
	C92.145874,213.348892 100.080833,206.231400 108.649605,198.935287 
	C109.421440,198.295258 110.193275,197.655243 111.626602,196.797089 
	C114.261688,193.977264 118.295815,192.522507 118.048676,187.261444 
	C117.621780,178.173462 118.059555,169.044846 118.837624,160.069565 
	C121.519241,161.092163 124.200859,162.114777 126.979019,163.786301 
	C127.023598,164.221207 127.068176,164.656113 127.262901,165.719162 
	C130.521011,167.766052 133.779129,169.812943 137.677551,171.699051 
	C140.788803,168.814453 143.900055,165.929855 147.048676,163.048019 
	C147.048676,163.048019 147.043793,163.010895 147.672256,162.785294 
	C155.262665,155.941864 162.724457,148.947449 170.500839,142.322296 
	C174.083664,139.269897 173.937027,137.191040 170.002441,134.998779 
	C170.002441,134.998779 170.018173,134.981094 169.873779,134.472549 
	C169.577652,134.301071 169.281525,134.129608 168.527176,133.272354 
	C167.589249,133.080582 166.651321,132.888794 165.642944,132.725739 
	C165.642944,132.725739 165.585327,132.721756 166.155731,133.783859 
	C166.552124,133.849930 166.948532,133.916000 167.750565,133.718246 
	C167.581879,133.157898 167.413193,132.597534 166.855652,131.392868 
	C164.586884,129.921219 162.318100,128.449585 159.911179,126.524658 
	C159.911179,126.524658 159.780212,126.069252 159.745972,125.395493 
	C157.832367,123.890694 155.918762,122.385887 153.768005,120.417953 
	C153.607727,120.351715 153.447433,120.285477 153.306488,120.091446 
	C153.306488,120.091446 153.181885,120.057098 152.920013,119.405624 
	C150.626114,117.576492 148.332214,115.747360 146.018265,113.980835 
	C146.018265,113.980835 146.084000,113.979805 145.936310,113.452736 
	C145.635910,113.263474 145.335495,113.074211 145.037949,112.956276 
M162.532166,168.191360 
	C161.746887,168.775146 160.961609,169.358932 159.745682,169.942383 
	C159.623611,170.018509 159.407898,170.083725 159.397491,170.172867 
	C159.369690,170.411484 159.429916,170.660370 158.669495,170.935547 
	C157.126190,172.092712 155.524521,173.180588 154.051514,174.421204 
	C150.788773,177.169098 151.530106,179.325745 155.733200,181.295975 
	C158.133575,182.958282 160.559235,184.585449 162.928848,186.290497 
	C167.337265,189.462509 171.713028,192.679886 176.720963,196.170563 
	C179.771423,198.461899 182.821884,200.753250 186.011749,203.756210 
	C190.295670,209.717148 194.571945,209.426117 198.031158,202.422348 
	C198.664001,201.941681 199.296860,201.460999 200.334198,201.400574 
	C202.267990,199.635513 204.201782,197.870453 206.729019,195.790070 
	C210.500290,191.866913 214.271561,187.943756 218.661224,183.748703 
	C221.510590,181.420471 224.359970,179.092224 227.813950,176.593353 
	C233.569000,171.426346 239.324051,166.259323 245.686615,160.826385 
	C247.229996,159.777161 248.773361,158.727936 250.995911,157.216995 
	C250.995911,170.837601 251.005402,183.440445 250.992157,196.043243 
	C250.984894,202.953247 252.918259,205.256577 260.746857,207.158203 
	C265.574829,210.607147 270.402771,214.056076 275.263123,217.742264 
	C275.263123,217.742264 275.500641,217.772781 275.920410,218.281876 
	C277.604004,219.207901 279.287567,220.133926 281.163239,221.635162 
	C281.782928,222.131638 282.402618,222.628113 283.212524,223.763138 
	C284.189026,224.840805 285.028595,226.097748 286.165192,226.965805 
	C291.765747,231.243164 297.455261,235.403732 303.093353,239.632217 
	C308.076172,243.369263 313.032623,247.141464 318.594391,251.161362 
	C322.708374,251.068451 323.115234,248.127502 323.029053,245.091003 
	C322.742249,234.983215 322.043793,224.879776 322.015594,214.773239 
	C321.897095,172.315338 321.987854,129.856873 321.881195,87.398926 
	C321.876801,85.655685 320.657593,83.915489 319.068481,82.069748 
	C300.086700,82.040474 281.104675,81.969460 262.123535,82.066757 
	C260.712067,82.073990 259.306732,83.288925 257.964630,83.964523 
	C257.964630,83.964523 257.984497,83.897766 257.244659,83.957878 
	C255.743027,84.857925 254.080994,85.570786 252.770432,86.693810 
	C249.127075,89.815819 245.677597,93.162941 242.066162,96.323586 
	C229.168579,107.611343 216.196609,118.814384 203.336212,130.144180 
	C198.546265,134.364059 194.099869,138.974808 189.295609,143.177338 
	C180.917084,150.506454 172.382660,157.657349 163.295670,165.318481 
	C163.051529,166.485352 162.807373,167.652237 162.814865,168.982208 
	C162.814865,168.982208 162.977921,168.730545 162.532166,168.191360 
M108.814697,29.353806 
	C107.877899,28.891417 106.941093,28.429028 105.989807,28.008743 
	C105.989807,28.008743 106.031097,27.992094 105.767525,27.319017 
	C105.064629,26.496429 104.521217,25.255812 103.633682,24.917192 
	C96.344101,22.136063 88.928596,19.922701 80.190010,21.241322 
	C79.154091,21.266747 78.118172,21.292171 76.251114,21.102570 
	C68.360497,21.768793 60.678001,23.430416 53.892696,27.600595 
	C46.435833,32.183510 39.198475,37.192574 37.273300,47.526703 
	C35.649055,53.523510 38.236305,58.847233 40.223499,64.149361 
	C42.787018,70.989204 53.890076,78.945763 60.751141,79.264961 
	C62.859264,79.786659 64.967392,80.308365 67.170624,81.641884 
	C67.772812,82.077354 68.369293,82.881737 68.978065,82.891136 
	C74.985008,82.983940 80.994545,82.996231 87.002289,82.932312 
	C99.175980,82.802811 108.787926,77.682388 116.598473,67.654518 
	C123.854095,61.297573 125.417244,49.504242 120.014259,40.241695 
	C117.885918,37.666035 115.757576,35.090378 113.587135,32.376171 
	C113.587135,32.376171 113.442505,32.369106 113.061707,31.848980 
	C111.717392,31.204817 110.373070,30.560654 109.019478,29.977005 
	C109.019478,29.977005 109.077660,29.957960 108.814697,29.353806 
M214.995102,300.004974 
	C214.995102,300.004974 214.966736,299.992218 215.626892,300.454834 
	C223.572525,301.793427 223.907166,301.533600 223.934525,293.774628 
	C223.964752,285.198303 223.971405,276.621948 223.736145,267.418610 
	C219.878937,264.150421 216.569260,265.136688 214.528976,270.707306 
	C214.355911,276.116852 214.002045,281.528595 214.066696,286.935303 
	C214.118927,291.304382 214.675537,295.667389 214.995102,300.004974 
M246.047806,45.736156 
	C246.354385,46.554493 246.660965,47.372833 246.938766,48.939877 
	C249.026672,56.524220 253.472305,62.082386 261.238617,65.709869 
	C267.491577,68.006691 273.744568,70.303520 280.409973,73.375900 
	C287.942200,72.952667 295.474457,72.529434 303.796722,72.000183 
	C313.083435,70.535469 319.888000,65.100899 326.138458,58.493149 
	C333.289001,50.933849 334.738434,38.145290 329.065155,29.526793 
	C323.203033,20.621382 315.107758,15.151971 304.660553,12.831661 
	C290.598053,9.708387 276.962433,9.688848 263.351379,17.220411 
	C262.200134,18.309925 261.221130,19.728060 259.869965,20.436199 
	C250.320389,25.441147 246.379578,33.625256 246.054398,44.521580 
	C246.077866,44.693741 246.101318,44.865898 246.047806,45.736156 
M164.810654,281.380371 
	C164.871353,281.921509 164.932053,282.462677 164.849426,283.578827 
	C164.279694,284.010864 163.709961,284.442871 163.140244,284.874908 
	C163.170044,282.539795 162.782867,280.086395 163.398285,277.917450 
	C163.726410,276.761017 165.787994,275.357330 167.066071,275.358459 
	C170.027054,275.361053 172.665558,276.299866 174.295425,272.328156 
	C175.273041,269.945862 183.113937,270.956482 184.426315,273.186462 
	C185.093582,274.320282 186.036667,275.291718 186.855042,276.336548 
	C188.150162,274.914551 189.900589,273.669617 190.551117,271.996948 
	C190.883453,271.142395 189.553024,268.890656 188.446030,268.348328 
	C181.132401,264.765289 173.585144,264.589661 166.516647,268.753082 
	C159.399216,272.945282 156.773468,284.639557 160.840317,291.827728 
	C165.173889,299.487335 173.227142,302.633087 183.258026,300.584442 
	C191.489105,298.903381 193.106476,296.663452 192.602203,288.223297 
	C192.431686,285.369476 191.686996,283.336121 188.455505,283.124603 
	C185.157837,282.908783 184.472824,284.896362 183.854385,287.699768 
	C182.843155,292.283508 180.602173,296.189117 175.877441,297.585510 
	C172.704605,290.926483 169.768677,284.764679 166.618591,278.153412 
	C165.942261,279.332306 165.465561,280.163208 164.810654,281.380371 
M74.481812,283.559784 
	C74.684624,288.087830 75.044823,292.616058 75.040520,297.143890 
	C75.037064,300.775970 77.245872,300.922516 79.923164,300.980469 
	C82.866608,301.044189 84.148453,299.795624 83.958199,296.846283 
	C83.837830,294.980255 83.935730,293.100189 83.935730,291.226410 
	C83.686333,291.212585 83.436935,291.198761 83.187538,291.184937 
	C83.087151,292.117798 82.986763,293.050659 82.255501,294.118103 
	C80.976784,293.498901 79.698059,292.879700 78.419350,292.260468 
	C79.429863,290.369324 80.514641,288.513000 81.424507,286.574615 
	C82.021271,285.303314 83.092667,283.618011 82.691429,282.629669 
	C81.260918,279.105988 79.291359,275.801147 77.017693,271.438477 
	C79.826759,272.193909 81.337875,272.600281 82.830353,273.001648 
	C84.614693,267.747925 83.672173,266.323242 78.868881,265.995239 
	C74.767227,265.715088 72.435112,267.405365 70.984909,271.263550 
	C69.412231,275.447510 67.244659,279.407898 65.336525,283.465790 
	C64.761505,283.378662 64.186478,283.291504 63.611454,283.204346 
	C61.780884,279.019653 59.705090,274.921295 58.191700,270.624878 
	C56.798794,266.670502 54.047981,265.940704 50.407352,266.004211 
	C46.444683,266.073395 45.338131,268.505127 44.434540,272.456635 
	C44.275082,277.840179 43.942051,283.226044 44.014767,288.606445 
	C44.066658,292.445618 44.663662,296.277374 45.731613,300.408447 
	C52.778332,301.587036 53.887634,300.633942 54.005371,293.467590 
	C54.049606,290.775085 54.237362,288.084961 54.359692,285.393738 
	C54.907265,285.291870 55.454842,285.190033 56.002419,285.088165 
	C57.067993,287.738556 57.809460,290.592743 59.305611,292.972443 
	C60.425606,294.753784 62.334209,296.561432 64.250175,297.113770 
	C65.306618,297.418274 67.590958,295.451874 68.467865,293.995270 
	C70.588310,290.473053 72.207619,286.649139 74.481812,283.559784 
M115.687950,295.708252 
	C119.136818,295.345581 122.859200,295.671875 125.962906,294.439758 
	C129.560257,293.011627 131.314056,292.301697 131.577271,297.227936 
	C131.730362,300.093048 136.124344,301.828033 139.191772,300.679779 
	C142.787628,299.333771 140.914764,296.863586 140.117752,294.913239 
	C136.850220,286.917450 133.294968,279.037872 130.103241,271.013092 
	C128.673264,267.417755 126.523064,265.894775 122.599579,265.934845 
	C118.665108,265.974976 117.090973,268.126862 115.816589,271.311615 
	C112.369392,279.926331 108.731911,288.464874 105.275620,297.076050 
	C104.920135,297.961700 104.915962,299.785156 105.376106,300.039795 
	C106.415703,300.615082 108.142868,301.024567 109.061104,300.526276 
	C111.208092,299.361145 113.043518,297.621948 115.687950,295.708252 
M325.149536,293.799042 
	C325.502136,285.401489 324.067596,283.187256 316.458710,280.303528 
	C314.593628,279.596710 312.362213,279.246796 310.993927,277.981537 
	C308.928406,276.071564 307.473206,273.501556 305.758606,271.212036 
	C306.439392,270.646881 307.120148,270.081726 307.800934,269.516571 
	C308.385742,271.082764 308.970581,272.648926 309.619202,274.385986 
	C311.963043,272.233093 313.142853,271.149384 314.685455,269.732422 
	C315.179382,271.163757 315.235138,272.689911 315.940643,273.100983 
	C317.697937,274.124939 319.912598,275.453613 321.635284,275.110748 
	C323.076233,274.823944 324.737488,272.456879 325.023193,270.791718 
	C325.185120,269.847839 322.926422,267.706757 321.493927,267.418976 
	C317.334534,266.583313 313.037292,266.015533 308.802338,266.063568 
	C300.757599,266.154755 296.536377,271.504517 298.312317,279.147675 
	C298.665985,280.669708 300.032471,282.430542 301.415741,283.146606 
	C304.987427,284.995605 308.911163,286.158783 312.512817,287.959015 
	C313.556824,288.480835 313.987305,290.230103 314.699036,291.416656 
	C313.506683,291.970764 312.169067,293.179962 311.149628,292.953918 
	C308.293518,292.320709 305.269135,291.556152 302.863373,289.993317 
	C299.363342,287.719604 298.078369,289.449463 296.953552,292.281006 
	C295.413055,296.159027 298.439362,297.187164 300.942230,298.473083 
	C310.616119,303.443176 320.171448,301.835785 325.149536,293.799042 
M246.714905,291.265839 
	C248.768219,293.049469 251.071579,294.617706 252.828018,296.657043 
	C258.112335,302.792358 269.492828,303.108063 274.934143,296.877014 
	C275.750641,295.942047 276.027893,293.614441 275.428192,292.591156 
	C274.626526,291.223145 271.966949,289.352905 271.431671,289.706482 
	C269.527954,290.963959 268.186859,293.073181 265.754913,295.868927 
	C264.219940,296.198547 261.370819,296.755615 259.913757,292.789337 
	C259.643005,292.052338 257.964081,291.885773 257.003082,291.336853 
	C255.564178,290.515015 252.972885,289.546570 253.001236,288.712860 
	C253.098892,285.841034 249.961197,282.726624 253.632919,279.990967 
	C257.862457,276.839661 261.850647,273.364380 266.450806,269.616608 
	C266.876068,271.013062 266.904938,272.696686 267.761230,273.548218 
	C269.054169,274.833954 270.955627,276.312195 272.539490,276.248199 
	C273.823395,276.196381 275.726562,274.143524 276.031799,272.698669 
	C276.274231,271.550934 274.838684,269.448090 273.589172,268.687103 
	C267.333954,264.877441 260.514252,264.561157 254.108963,267.786987 
	C245.882889,271.929749 243.245865,280.663940 246.714905,291.265839 
M181.493927,273.473694 
	C181.493927,273.473694 181.507187,273.514282 181.493927,273.473694 
z"/>
<path fill="#4C70B5" opacity="1.000000" stroke="none" 
	d="
M227.209335,176.763992 
	C224.359970,179.092224 221.510590,181.420471 218.083618,183.793320 
	C211.967300,185.964920 207.608673,189.441818 204.567017,194.851532 
	C202.431259,194.033264 200.468628,193.454498 198.908875,192.321228 
	C191.540787,186.967896 184.282944,181.462845 176.939880,175.648621 
	C175.360626,173.284225 173.831161,171.280136 172.292694,169.282944 
	C171.173843,167.830490 170.043106,166.387207 168.930908,164.950073 
	C168.944138,164.960312 168.944504,164.927719 169.313919,164.888458 
	C173.152191,163.763199 176.979446,163.064545 177.178894,157.939880 
	C181.312469,153.812439 185.181396,149.904022 189.303482,145.902130 
	C190.022446,145.537872 190.488266,145.267090 190.962952,144.975403 
	C190.971802,144.954529 191.014526,144.939301 191.306335,145.008804 
	C196.266281,144.384613 200.175537,142.891846 200.205902,136.831146 
	C204.800354,132.762772 209.231888,129.009644 213.568985,125.150375 
	C221.619400,117.986847 229.705444,110.859222 237.605560,103.532181 
	C244.520493,97.118866 251.200638,90.452408 257.984497,83.897766 
	C257.984497,83.897766 257.964630,83.964523 258.222656,83.991226 
	C258.674500,84.044395 258.868317,84.070847 259.302307,84.237259 
	C260.073975,84.553253 260.605408,84.729271 261.434784,84.883629 
	C262.130402,84.877365 262.528076,84.892769 262.919983,85.098618 
	C263.113159,85.645905 263.312103,86.002754 263.511017,86.359589 
	C263.595398,86.241257 263.777954,86.059708 263.748840,86.014503 
	C263.495148,85.620667 263.203552,85.251244 262.930847,84.671280 
	C262.938477,84.467987 262.979919,84.063240 263.436890,84.069672 
	C266.941772,84.159340 269.989716,84.242569 273.295837,84.584152 
	C274.790314,85.218704 276.014099,85.870041 277.265015,85.927162 
	C286.510162,86.349319 295.760284,86.667374 305.010010,86.983322 
	C307.141693,87.056129 309.277924,86.994064 311.997040,86.994064 
	C309.106750,85.872063 307.034027,85.067444 305.426849,84.196342 
	C310.544739,84.185020 315.197052,84.240173 319.884247,84.473007 
	C319.919098,84.650688 320.015381,84.999786 320.001892,85.468307 
	C319.985168,89.093452 319.977844,92.250076 319.979309,95.406708 
	C320.002502,144.917236 320.026733,194.427765 320.031921,244.291992 
	C319.423859,246.014191 318.834625,247.382675 318.087646,248.462448 
	C316.945282,247.298996 316.017548,246.348373 314.967224,245.561325 
	C305.063568,238.140182 295.139008,230.746948 285.417511,223.052307 
	C285.711487,221.827789 285.808411,220.896622 285.966064,219.503693 
	C286.036133,215.381134 286.040588,211.720322 286.055695,208.059525 
	C286.146332,186.101562 286.239441,164.143616 286.678711,141.985046 
	C290.440155,137.603180 287.604919,133.552277 286.604675,129.294159 
	C286.348053,128.823059 286.341248,128.515594 286.691986,128.069138 
	C286.739319,126.940201 286.514984,125.948341 285.897034,124.908661 
	C284.411285,125.453751 283.135345,125.850960 282.259186,126.673820 
	C278.643494,130.069458 275.149017,133.594131 271.255402,137.142456 
	C263.591187,138.180603 259.672272,144.000183 254.777283,148.438812 
	C253.607071,149.499939 252.383255,150.878479 250.967270,151.225021 
	C245.657471,152.524506 242.822357,155.807388 241.834595,161.337830 
	C238.995865,164.088181 236.261429,166.482452 233.763367,169.102127 
	C231.447372,171.530869 229.383972,174.200455 227.209335,176.763992 
z"/>
<path fill="#4B70B5" opacity="1.000000" stroke="none" 
	d="
M143.030548,112.004509 
	C143.030548,112.004509 143.481583,112.105118 143.891876,112.291641 
	C144.539658,112.689507 144.808640,112.847038 145.109116,112.950760 
	C145.109116,112.950760 145.037949,112.956276 145.172424,113.138489 
	C145.565918,113.540398 145.824966,113.760101 146.084000,113.979805 
	C146.084000,113.979805 146.018265,113.980835 146.082520,114.305664 
	C147.202728,118.110558 149.614151,119.833351 153.181885,120.057098 
	C153.181885,120.057098 153.306488,120.091446 153.269821,120.551155 
	C153.840500,122.320274 154.447861,123.629677 155.083710,124.909462 
	C155.112198,124.879837 155.194366,124.876854 155.166992,125.298462 
	C155.114304,127.127495 155.088974,128.534927 155.040848,129.968597 
	C155.018066,129.994812 154.975433,130.049667 154.797882,130.200546 
	C155.122559,131.277084 155.624771,132.202744 156.103516,133.397018 
	C156.041428,134.023102 156.002838,134.380569 155.713257,134.911530 
	C154.965134,135.716522 154.467987,136.347977 153.976883,136.964294 
	C153.982910,136.949127 153.950165,136.954971 153.625336,137.055344 
	C150.878250,139.427170 148.455994,141.698624 146.008301,143.974777 
	C145.982895,143.979477 145.964142,144.027634 145.766479,144.147064 
	C145.321396,144.460281 145.129776,144.698868 144.985306,144.966370 
	C144.976685,144.950485 144.951767,144.976669 144.613098,145.024094 
	C142.839722,146.373917 141.404984,147.676315 139.986145,148.988983 
	C140.002029,148.999252 139.977539,148.969437 139.673630,149.079132 
	C138.498322,150.106079 137.626923,151.023346 136.607101,152.074417 
	C136.270218,152.398651 136.107376,152.608917 135.687561,152.925812 
	C134.924225,153.338959 134.443497,153.665329 133.989029,153.995270 
	C134.015289,153.998825 133.991302,153.951569 133.674561,154.005951 
	C132.937485,154.140152 132.517181,154.219986 131.822327,154.173874 
	C127.982254,155.079147 124.416740,156.110367 120.570328,157.113541 
	C119.914787,157.053177 119.540138,157.020859 119.054382,156.657410 
	C116.290840,154.240616 113.638397,152.154968 110.775024,149.836777 
	C109.468170,148.716049 108.372253,147.827835 106.774338,146.532776 
	C106.447578,149.152420 106.207809,151.074661 105.797180,153.372620 
	C105.430153,162.869812 105.121162,171.990891 105.090332,181.112900 
	C105.076988,185.058777 105.637779,189.006592 106.046814,192.919174 
	C106.155846,192.884811 106.383377,192.907257 106.337746,193.257416 
	C106.356934,194.073227 106.421761,194.538895 106.426506,195.309052 
	C106.337585,196.024139 106.308754,196.434692 106.217484,197.134094 
	C106.150749,197.814972 106.146454,198.207047 105.804619,198.731247 
	C104.787964,199.336243 104.059433,199.751968 103.437050,200.290421 
	C92.139122,210.064560 80.835396,219.832153 69.575584,229.650101 
	C65.300354,233.377869 61.132481,237.228775 56.549885,241.037949 
	C53.842407,240.714386 51.500725,240.376434 49.138977,239.662659 
	C49.143604,238.535004 49.168304,237.783188 49.503487,236.900238 
	C54.146965,234.411530 54.159050,230.581604 53.550739,226.377991 
	C52.887493,221.794739 51.980087,217.155945 52.107899,212.567230 
	C52.412163,201.643280 53.774227,190.733765 53.756413,179.819977 
	C53.737167,168.033707 52.308643,156.255432 52.084209,144.462448 
	C51.776844,128.312103 52.025116,112.151184 52.500286,95.994331 
	C70.208496,95.994583 87.451866,96.034538 104.694633,95.951477 
	C107.132965,95.939735 109.568413,95.328438 112.378189,94.992264 
	C113.497177,94.990677 114.243172,94.991463 115.328690,95.155487 
	C117.415619,95.538147 119.163033,95.757568 121.193588,95.971832 
	C121.665413,95.959686 121.854088,95.952682 122.028152,95.959373 
	C122.013550,95.973061 122.040939,95.959488 122.174454,96.219116 
	C122.894363,96.965759 123.480759,97.452766 124.057144,97.920670 
	C124.047134,97.901573 124.089897,97.908096 124.079742,98.314110 
	C125.199684,100.464706 126.005524,102.598961 127.531013,103.868408 
	C130.255920,106.135971 133.355850,107.980919 136.415466,109.807411 
	C138.167252,110.853172 140.148636,111.514282 142.279968,112.269363 
	C142.699020,112.128265 142.864792,112.066391 143.030548,112.004509 
z"/>
<path fill="#4C70B4" opacity="1.000000" stroke="none" 
	d="
M279.997528,72.600342 
	C273.744568,70.303520 267.491577,68.006691 261.091919,65.151260 
	C259.898987,63.234074 259.008087,61.711800 257.779114,60.545856 
	C252.995560,56.007629 249.349686,50.904808 249.030334,43.718201 
	C250.621796,36.999481 250.997803,30.162195 256.844513,25.737673 
	C259.190033,23.962677 261.655518,22.346188 264.332031,20.464874 
	C268.090424,18.871065 271.543701,17.360313 275.082672,16.087700 
	C290.836090,10.422704 305.531311,13.215636 319.053894,22.389055 
	C329.132812,29.226376 332.355469,39.143585 328.095184,50.229885 
	C325.215210,57.724274 319.487518,62.981728 312.137146,66.372566 
	C310.060516,67.330559 308.063019,68.460121 305.694153,69.611023 
	C304.553772,70.138168 303.748444,70.565300 302.973846,70.989281 
	C303.004578,70.986137 302.978973,70.929932 302.548065,70.919502 
	C298.005341,71.245140 293.894653,71.595909 289.781342,71.912582 
	C286.521759,72.163528 283.258911,72.372650 279.997528,72.600342 
z"/>
<path fill="#4C70B4" opacity="1.000000" stroke="none" 
	d="
M67.075516,80.830063 
	C64.967392,80.308365 62.859264,79.786659 60.272240,78.782959 
	C58.545071,77.289780 57.358120,76.189301 56.037975,75.282799 
	C50.161091,71.247368 44.478271,67.050125 41.953308,59.753677 
	C41.414810,56.963387 40.717232,54.458210 40.032478,51.591740 
	C40.044411,50.509190 40.043514,49.787937 40.193146,48.727951 
	C41.951786,40.493145 47.392658,35.150856 53.477421,30.906849 
	C57.682613,27.973806 63.120632,26.804804 68.013947,24.863142 
	C71.030685,23.666101 74.059090,22.498444 77.082253,21.317596 
	C78.118172,21.292171 79.154091,21.266747 80.818413,21.553040 
	C86.983025,23.194080 92.524681,24.501291 98.053093,25.862272 
	C100.725258,26.520102 103.372543,27.278973 106.031097,27.992094 
	C106.031097,27.992094 105.989807,28.008743 106.148071,28.272739 
	C107.230118,29.010479 108.153885,29.484219 109.077660,29.957958 
	C109.077660,29.957960 109.019478,29.977005 109.178833,30.255939 
	C110.706291,31.146286 112.074402,31.757696 113.442505,32.369106 
	C113.442505,32.369106 113.587135,32.376171 113.576416,32.803898 
	C115.250259,35.814934 116.934814,38.398243 118.754196,41.359993 
	C122.543053,50.374531 121.277542,58.397842 115.570076,66.048019 
	C114.684593,66.514374 113.953918,66.708954 113.553337,67.182678 
	C104.128654,78.328270 91.872101,81.503769 77.857697,80.258797 
	C74.308563,79.943504 70.671936,80.613060 67.075516,80.830063 
z"/>
<path fill="#A7BFE6" opacity="1.000000" stroke="none" 
	d="
M285.905334,219.965439 
	C285.808411,220.896622 285.711487,221.827789 285.069824,222.880493 
	C284.024170,223.042892 283.523254,223.083740 283.022308,223.124603 
	C282.402618,222.628113 281.782928,222.131638 281.161560,221.025772 
	C281.221649,215.364609 277.816254,217.735184 275.500641,217.772781 
	C275.500641,217.772781 275.263123,217.742264 275.281830,217.253632 
	C273.915283,208.904617 266.425903,206.589584 261.238068,202.833160 
	C257.956573,200.457077 255.712677,198.623428 255.325165,194.867508 
	C254.987656,191.596359 255.112228,188.277527 255.320038,184.752563 
	C256.063171,181.657486 256.518890,178.789581 256.972778,175.710510 
	C256.970886,175.499329 256.975555,175.076981 256.976257,174.609680 
	C256.640594,169.730423 256.304260,165.318436 255.973053,160.550964 
	C255.988312,159.484467 255.998428,158.773453 256.044159,157.925598 
	C256.119019,157.502487 256.064392,157.234177 255.813675,156.741730 
	C255.220810,156.037048 254.730103,155.574463 254.163345,154.875839 
	C253.978500,154.303665 253.762802,154.063568 253.480316,153.639557 
	C254.323273,152.872528 255.126099,152.385468 256.202148,151.998077 
	C260.326294,150.803589 264.761627,150.131195 264.462006,144.489990 
	C264.377258,144.468643 264.404633,144.295990 264.816284,144.360687 
	C268.984344,144.721619 271.711151,143.669113 273.356781,139.790802 
	C274.164368,137.887543 276.398468,136.589569 278.004822,135.039093 
	C278.022644,135.060516 278.017303,134.987274 278.228363,134.773529 
	C282.310974,132.420425 283.924744,133.621094 283.924347,138.662613 
	C283.922455,164.040390 283.877045,189.418350 283.996674,214.795547 
	C284.004791,216.521805 285.240540,218.242279 285.905334,219.965439 
z"/>
<path fill="#070406" opacity="1.000000" stroke="none" 
	d="
M45.022751,271.809052 
	C45.338131,268.505127 46.444683,266.073395 50.407352,266.004211 
	C54.047981,265.940704 56.798794,266.670502 58.191700,270.624878 
	C59.705090,274.921295 61.780884,279.019653 63.611454,283.204346 
	C64.186478,283.291504 64.761505,283.378662 65.336525,283.465790 
	C67.244659,279.407898 69.412231,275.447510 70.984909,271.263550 
	C72.435112,267.405365 74.767227,265.715088 78.868881,265.995239 
	C83.672173,266.323242 84.614693,267.747925 82.830353,273.001648 
	C81.337875,272.600281 79.826759,272.193909 77.017693,271.438477 
	C79.291359,275.801147 81.260918,279.105988 82.691429,282.629669 
	C83.092667,283.618011 82.021271,285.303314 81.424507,286.574615 
	C80.514641,288.513000 79.429863,290.369324 78.419342,292.260468 
	C79.698059,292.879700 80.976784,293.498901 82.612381,294.468719 
	C83.057571,297.437073 83.151108,300.041229 79.350372,299.918579 
	C75.513451,299.794739 75.990639,296.927368 75.946617,294.494476 
	C75.883408,291.000549 76.023926,287.501862 75.897682,284.011749 
	C75.884048,283.634735 74.680527,283.300751 74.028938,282.946838 
	C72.207619,286.649139 70.588310,290.473053 68.467865,293.995270 
	C67.590958,295.451874 65.306618,297.418274 64.250175,297.113770 
	C62.334209,296.561432 60.425606,294.753784 59.305611,292.972443 
	C57.809460,290.592743 57.067993,287.738556 56.002419,285.088165 
	C55.454842,285.190033 54.907265,285.291870 54.359692,285.393738 
	C54.237362,288.084961 54.049606,290.775085 54.005371,293.467590 
	C53.887634,300.633942 52.778332,301.587036 45.416054,299.784119 
	C45.074577,290.042877 45.048664,280.925964 45.022751,271.809052 
z"/>
<path fill="#070306" opacity="1.000000" stroke="none" 
	d="
M115.346527,295.911743 
	C113.043518,297.621948 111.208092,299.361145 109.061104,300.526276 
	C108.142868,301.024567 106.415703,300.615082 105.376106,300.039795 
	C104.915962,299.785156 104.920135,297.961700 105.275620,297.076050 
	C108.731911,288.464874 112.369392,279.926331 115.816589,271.311615 
	C117.090973,268.126862 118.665108,265.974976 122.599579,265.934845 
	C126.523064,265.894775 128.673264,267.417755 130.103241,271.013092 
	C133.294968,279.037872 136.850220,286.917450 140.117752,294.913239 
	C140.914764,296.863586 142.787628,299.333771 139.191772,300.679779 
	C136.124344,301.828033 131.730362,300.093048 131.577271,297.227936 
	C131.314056,292.301697 129.560257,293.011627 125.962906,294.439758 
	C122.859200,295.671875 119.136818,295.345581 115.346527,295.911743 
M109.626457,293.502106 
	C109.829369,293.600708 110.032272,293.699310 110.235176,293.797943 
	C110.275726,293.670044 110.316277,293.542175 110.356819,293.414276 
	C110.137344,293.366302 109.917877,293.318359 109.626457,293.502106 
z"/>
<path fill="#090407" opacity="1.000000" stroke="none" 
	d="
M325.029724,294.133057 
	C320.171448,301.835785 310.616119,303.443176 300.942230,298.473083 
	C298.439362,297.187164 295.413055,296.159027 296.953552,292.281006 
	C298.078369,289.449463 299.363342,287.719604 302.863373,289.993317 
	C305.269135,291.556152 308.293518,292.320709 311.149628,292.953918 
	C312.169067,293.179962 313.506683,291.970764 314.699036,291.416656 
	C313.987305,290.230103 313.556824,288.480835 312.512817,287.959015 
	C308.911163,286.158783 304.987427,284.995605 301.415741,283.146606 
	C300.032471,282.430542 298.665985,280.669708 298.312317,279.147675 
	C296.536377,271.504517 300.757599,266.154755 308.802338,266.063568 
	C313.037292,266.015533 317.334534,266.583313 321.493927,267.418976 
	C322.926422,267.706757 325.185120,269.847839 325.023193,270.791718 
	C324.737488,272.456879 323.076233,274.823944 321.635284,275.110748 
	C319.912598,275.453613 317.697937,274.124939 315.940643,273.100983 
	C315.235138,272.689911 315.179382,271.163757 314.685455,269.732422 
	C313.142853,271.149384 311.963043,272.233093 309.619202,274.385986 
	C308.970581,272.648926 308.385742,271.082764 307.800934,269.516571 
	C307.120148,270.081726 306.439392,270.646881 305.758606,271.212036 
	C307.473206,273.501556 308.928406,276.071564 310.993927,277.981537 
	C312.362213,279.246796 314.593628,279.596710 316.458710,280.303528 
	C324.067596,283.187256 325.502136,285.401489 325.029724,294.133057 
M310.107666,295.881683 
	C310.141388,295.648071 310.175140,295.414490 310.208893,295.180878 
	C310.078369,295.174072 309.947815,295.167267 309.817291,295.160492 
	C309.834442,295.396423 309.851593,295.632385 310.107666,295.881683 
z"/>
<path fill="#090508" opacity="1.000000" stroke="none" 
	d="
M164.988876,280.994110 
	C165.465561,280.163208 165.942261,279.332306 166.618591,278.153412 
	C169.768677,284.764679 172.704605,290.926483 175.877441,297.585510 
	C180.602173,296.189117 182.843155,292.283508 183.854385,287.699768 
	C184.472824,284.896362 185.157837,282.908783 188.455505,283.124603 
	C191.686996,283.336121 192.431686,285.369476 192.602203,288.223297 
	C193.106476,296.663452 191.489105,298.903381 183.258026,300.584442 
	C173.227142,302.633087 165.173889,299.487335 160.840317,291.827728 
	C156.773468,284.639557 159.399216,272.945282 166.516647,268.753082 
	C173.585144,264.589661 181.132401,264.765289 188.446030,268.348328 
	C189.553024,268.890656 190.883453,271.142395 190.551117,271.996948 
	C189.900589,273.669617 188.150162,274.914551 186.855042,276.336548 
	C186.036667,275.291718 185.093582,274.320282 184.426315,273.186462 
	C183.113937,270.956482 175.273041,269.945862 174.295425,272.328156 
	C172.665558,276.299866 170.027054,275.361053 167.066071,275.358459 
	C165.787994,275.357330 163.726410,276.761017 163.398285,277.917450 
	C162.782867,280.086395 163.170044,282.539795 163.140244,284.874908 
	C163.709961,284.442871 164.279694,284.010864 164.925812,283.287933 
	C165.002197,282.997040 165.009323,282.987976 165.186859,282.887207 
	C165.247879,282.197388 165.131348,281.608307 165.009186,281.012543 
	C165.003571,281.005859 164.988876,280.994110 164.988876,280.994110 
z"/>
<path fill="#090507" opacity="1.000000" stroke="none" 
	d="
M246.568756,290.926636 
	C243.245865,280.663940 245.882889,271.929749 254.108963,267.786987 
	C260.514252,264.561157 267.333954,264.877441 273.589172,268.687103 
	C274.838684,269.448090 276.274231,271.550934 276.031799,272.698669 
	C275.726562,274.143524 273.823395,276.196381 272.539490,276.248199 
	C270.955627,276.312195 269.054169,274.833954 267.761230,273.548218 
	C266.904938,272.696686 266.876068,271.013062 266.450806,269.616608 
	C261.850647,273.364380 257.862457,276.839661 253.632919,279.990967 
	C249.961197,282.726624 253.098892,285.841034 253.001236,288.712860 
	C252.972885,289.546570 255.564178,290.515015 257.003082,291.336853 
	C257.964081,291.885773 259.643005,292.052338 259.913757,292.789337 
	C261.370819,296.755615 264.219940,296.198547 265.754913,295.868927 
	C268.186859,293.073181 269.527954,290.963959 271.431671,289.706482 
	C271.966949,289.352905 274.626526,291.223145 275.428192,292.591156 
	C276.027893,293.614441 275.750641,295.942047 274.934143,296.877014 
	C269.492828,303.108063 258.112335,302.792358 252.828018,296.657043 
	C251.071579,294.617706 248.768219,293.049469 246.568756,290.926636 
z"/>
<path fill="#506DAD" opacity="1.000000" stroke="none" 
	d="
M199.929703,200.980331 
	C199.296860,201.460999 198.664001,201.941681 197.533066,202.699158 
	C193.331924,205.896667 189.597031,203.641052 185.872345,203.044601 
	C182.821884,200.753250 179.771423,198.461899 176.347412,195.681305 
	C174.643295,193.593933 173.520554,191.743774 171.944077,190.443893 
	C166.764984,186.173538 161.421249,182.102829 156.172852,177.629181 
	C156.474350,176.245544 156.743790,175.188141 157.215881,173.972900 
	C157.620682,173.542526 157.822830,173.269989 157.998550,173.002167 
	C157.972107,173.006882 157.992462,173.055954 158.351395,172.991837 
	C161.044083,173.291397 163.886780,172.924728 165.628296,174.138306 
	C176.265305,181.550613 186.683914,189.279266 197.081131,197.028870 
	C198.322662,197.954239 198.994049,199.644562 199.929703,200.980331 
z"/>
<path fill="#A3B6D9" opacity="1.000000" stroke="none" 
	d="
M106.486588,195.004547 
	C106.421761,194.538895 106.356934,194.073227 106.597839,193.005920 
	C107.284439,190.500656 107.967880,188.601227 107.994255,186.692719 
	C108.113602,178.056625 107.766090,169.404404 108.181740,160.786682 
	C108.355820,157.177536 110.006577,153.639618 110.985962,150.069305 
	C113.638397,152.154968 116.290840,154.240616 118.881561,156.946442 
	C118.591415,158.355499 118.362991,159.144394 118.134560,159.933289 
	C118.059555,169.044846 117.621780,178.173462 118.048676,187.261444 
	C118.295815,192.522507 114.261688,193.977264 111.204239,196.694641 
	C109.924286,196.439011 109.066711,196.285828 108.011688,195.963882 
	C107.371681,195.531586 106.929131,195.268066 106.486588,195.004547 
z"/>
<path fill="#506EB1" opacity="1.000000" stroke="none" 
	d="
M165.713394,132.697021 
	C166.651321,132.888794 167.589249,133.080582 168.879517,133.831696 
	C169.441330,134.657898 169.703430,134.854568 170.018173,134.981094 
	C170.018173,134.981094 170.002441,134.998779 170.018616,135.337799 
	C169.299774,137.657486 169.103790,140.194809 167.734650,141.520615 
	C162.368927,146.716400 156.507523,151.398529 151.105759,156.559830 
	C149.323898,158.262360 148.374069,160.835724 147.043793,163.010895 
	C147.043793,163.010895 147.048676,163.048019 146.652283,163.022568 
	C143.133118,165.323288 140.010315,167.649445 136.592087,169.827911 
	C134.183121,167.802505 132.069611,165.924835 130.261429,163.908691 
	C134.706436,160.170731 138.846115,156.571228 143.243011,152.822266 
	C144.068329,152.120514 144.636414,151.568222 145.478058,150.846497 
	C147.897461,148.849762 150.043320,147.022491 152.438293,145.037994 
	C153.163010,144.267960 153.638611,143.655197 154.371765,142.953842 
	C155.107681,142.603897 155.586044,142.342529 156.320496,141.876022 
	C158.088257,140.812210 159.599930,139.953537 161.358978,138.909729 
	C162.044052,137.825775 162.481735,136.926971 162.963989,135.815948 
	C163.008545,135.603714 163.060486,135.173096 163.445709,134.941284 
	C164.458420,134.038666 165.085907,133.367844 165.713394,132.697021 
z"/>
<path fill="#56648E" opacity="1.000000" stroke="none" 
	d="
M257.614563,83.927826 
	C251.200638,90.452408 244.520493,97.118866 237.605560,103.532181 
	C229.705444,110.859222 221.619400,117.986847 213.568985,125.150375 
	C209.231888,129.009644 204.800354,132.762772 199.909393,136.962219 
	C196.609741,139.886871 193.812134,142.413086 191.014526,144.939301 
	C191.014526,144.939301 190.971802,144.954529 190.703125,145.054779 
	C189.973068,145.435226 189.511703,145.715408 189.050339,145.995605 
	C185.181396,149.904022 181.312469,153.812439 176.861679,158.020050 
	C173.834702,160.522049 171.389603,162.724884 168.944504,164.927719 
	C168.944504,164.927719 168.944138,164.960312 168.602722,165.023071 
	C167.179672,165.401077 166.098068,165.716324 164.767136,166.087769 
	C164.350662,166.176895 164.183487,166.209808 163.988617,165.902924 
	C163.945145,165.336426 163.929367,165.109695 163.913574,164.882950 
	C172.382660,157.657349 180.917084,150.506454 189.295609,143.177338 
	C194.099869,138.974808 198.546265,134.364059 203.336212,130.144180 
	C216.196609,118.814384 229.168579,107.611343 242.066162,96.323586 
	C245.677597,93.162941 249.127075,89.815819 252.770432,86.693810 
	C254.080994,85.570786 255.743027,84.857925 257.614563,83.927826 
z"/>
<path fill="#474B6D" opacity="1.000000" stroke="none" 
	d="
M49.193005,237.031357 
	C49.168304,237.783188 49.143604,238.535004 49.092438,240.049469 
	C49.380089,243.094788 47.314327,247.444672 52.906349,245.645844 
	C52.974243,246.419739 52.997368,246.729645 53.020493,247.039551 
	C52.588669,247.620300 52.156841,248.201035 51.266365,249.070953 
	C50.536011,249.594986 50.264297,249.829834 49.992584,250.064667 
	C49.992580,250.064667 50.050243,250.020569 49.669930,250.019089 
	C48.481827,250.041946 47.674042,250.066269 46.866253,250.090591 
	C46.866253,250.090591 46.926220,250.065414 46.943356,249.646698 
	C46.682438,246.150269 46.404385,243.072556 46.126331,239.994827 
	C46.084042,238.273834 46.041752,236.552856 46.215630,234.029083 
	C46.629383,231.583267 46.998253,229.940323 46.999210,228.297150 
	C47.017582,196.825989 47.008419,165.354767 46.939125,133.883698 
	C46.934818,131.927338 46.388054,129.972153 46.093674,128.016418 
	C46.063469,126.932777 46.033264,125.849136 46.217339,123.987480 
	C46.335670,117.156990 46.239727,111.104515 46.143784,105.052040 
	C46.840641,100.809250 47.537502,96.566460 48.672539,92.134949 
	C49.110722,91.946228 49.341774,91.993576 49.276772,92.264099 
	C49.183315,92.717270 49.154858,92.899918 49.094528,93.545151 
	C49.039665,116.600189 48.980965,139.192673 49.003235,161.785080 
	C49.027962,186.867218 49.126564,211.949265 49.193005,237.031357 
z"/>
<path fill="#4F5E84" opacity="1.000000" stroke="none" 
	d="
M306.029236,69.511002 
	C308.063019,68.460121 310.060516,67.330559 312.137146,66.372566 
	C319.487518,62.981728 325.215210,57.724274 328.095184,50.229885 
	C332.355469,39.143585 329.132812,29.226376 319.053894,22.389055 
	C305.531311,13.215636 290.836090,10.422704 275.082672,16.087700 
	C271.543701,17.360313 268.090424,18.871065 264.321686,20.116491 
	C264.047516,19.003193 264.049347,18.045595 264.051178,17.087999 
	C276.962433,9.688848 290.598053,9.708387 304.660553,12.831661 
	C315.107758,15.151971 323.203033,20.621382 329.065155,29.526793 
	C334.738434,38.145290 333.289001,50.933849 326.138458,58.493149 
	C319.888000,65.100899 313.083435,70.535469 303.395874,71.759079 
	C302.989685,71.321953 302.984314,71.125938 302.978973,70.929932 
	C302.978973,70.929932 303.004578,70.986137 303.321411,70.939255 
	C304.435272,70.431915 305.232239,69.971458 306.029236,69.511002 
z"/>
<path fill="#030202" opacity="1.000000" stroke="none" 
	d="
M214.994904,270.023438 
	C216.569260,265.136688 219.878937,264.150421 223.643524,268.079254 
	C223.385773,276.349030 223.137390,283.957489 223.077850,291.567444 
	C223.012512,299.918457 223.088364,299.919037 214.966736,299.992218 
	C214.966736,299.992218 214.995102,300.004974 215.017212,299.548279 
	C215.024506,289.402191 215.009705,279.712799 214.994904,270.023438 
z"/>
<path fill="#404A79" opacity="1.000000" stroke="none" 
	d="
M164.016327,166.242706 
	C164.183487,166.209808 164.350662,166.176895 164.833832,166.430511 
	C169.095169,169.815338 173.040497,172.913620 176.985809,176.011887 
	C184.282944,181.462845 191.540787,186.967896 198.908875,192.321228 
	C200.468628,193.454498 202.431259,194.033264 204.768921,195.063538 
	C205.598236,195.541489 205.866913,195.823441 206.135590,196.105377 
	C204.201782,197.870453 202.267990,199.635513 200.131958,201.190460 
	C198.994049,199.644562 198.322662,197.954239 197.081131,197.028870 
	C186.683914,189.279266 176.265305,181.550613 165.628296,174.138306 
	C163.886780,172.924728 161.044083,173.291397 158.497833,172.698090 
	C158.675278,171.947357 159.065216,171.426254 159.455154,170.905167 
	C159.429916,170.660370 159.369690,170.411484 159.397491,170.172867 
	C159.407898,170.083725 159.623611,170.018509 160.339371,169.876740 
	C161.614685,169.450928 162.296295,169.090729 162.977921,168.730545 
	C162.977921,168.730545 162.814865,168.982208 162.905243,168.683380 
	C163.335876,167.670609 163.676102,166.956665 164.016327,166.242706 
z"/>
<path fill="#43507B" opacity="1.000000" stroke="none" 
	d="
M320.015381,84.999786 
	C320.015381,84.999786 319.919098,84.650688 319.902985,84.134949 
	C319.894043,83.394669 319.901184,83.170135 319.931396,82.752548 
	C319.954468,82.559502 320.004333,82.173874 320.004333,82.173874 
	C320.657593,83.915489 321.876801,85.655685 321.881195,87.398926 
	C321.987854,129.856873 321.897095,172.315338 322.015594,214.773239 
	C322.043793,224.879776 322.742249,234.983215 323.029053,245.091003 
	C323.115234,248.127502 322.708374,251.068451 318.334381,250.671860 
	C318.131378,249.705292 318.188385,249.228241 318.245422,248.751160 
	C318.834625,247.382675 319.423859,246.014191 320.192719,243.920746 
	C320.584198,241.221008 320.979645,239.246323 320.980988,237.271393 
	C321.014191,188.797302 321.019012,140.323196 320.962494,91.849159 
	C320.959839,89.565666 320.345093,87.282898 320.015381,84.999786 
z"/>
<path fill="#4B5984" opacity="1.000000" stroke="none" 
	d="
M53.373405,247.018250 
	C52.997368,246.729645 52.974243,246.419739 53.050938,245.421783 
	C54.405727,243.496994 55.660706,242.260284 56.915684,241.023560 
	C61.132481,237.228775 65.300354,233.377869 69.575584,229.650101 
	C80.835396,219.832153 92.139122,210.064560 103.437050,200.290421 
	C104.059433,199.751968 104.787964,199.336243 106.112015,198.847412 
	C107.179611,198.929031 107.602264,199.026596 108.024918,199.124176 
	C100.080833,206.231400 92.145874,213.348892 84.189667,220.442551 
	C78.167023,225.812271 72.144760,231.183044 66.070007,236.493500 
	C62.002895,240.048935 57.844097,243.499481 53.373405,247.018250 
z"/>
<path fill="#BAC6E1" opacity="1.000000" stroke="none" 
	d="
M255.032623,184.979767 
	C255.112228,188.277527 254.987656,191.596359 255.325165,194.867508 
	C255.712677,198.623428 257.956573,200.457077 261.238068,202.833160 
	C266.425903,206.589584 273.915283,208.904617 275.265625,217.134995 
	C270.402771,214.056076 265.574829,210.607147 260.402100,206.651474 
	C256.233246,202.545074 251.515671,199.425949 253.039551,192.518951 
	C253.042633,181.379181 252.984924,170.703232 253.016495,159.712463 
	C253.172211,158.966415 253.238632,158.535187 253.591293,158.095306 
	C254.256882,158.043900 254.636261,158.001144 255.263885,157.984116 
	C255.512146,158.009827 256.008545,158.062454 256.008545,158.062454 
	C255.998428,158.773453 255.988312,159.484467 255.811539,160.940155 
	C255.440811,169.449814 255.236725,177.214783 255.032623,184.979767 
z"/>
<path fill="#4E5A86" opacity="1.000000" stroke="none" 
	d="
M67.123070,81.235977 
	C70.671936,80.613060 74.308563,79.943504 77.857697,80.258797 
	C91.872101,81.503769 104.128654,78.328270 113.553337,67.182678 
	C113.953918,66.708954 114.684593,66.514374 115.574432,66.380333 
	C115.912575,67.012772 115.937775,67.454620 115.962982,67.896477 
	C108.787926,77.682388 99.175980,82.802811 87.002289,82.932312 
	C80.994545,82.996231 74.985008,82.983940 68.978065,82.891136 
	C68.369293,82.881737 67.772812,82.077354 67.123070,81.235977 
z"/>
<path fill="#51618A" opacity="1.000000" stroke="none" 
	d="
M76.666687,21.210083 
	C74.059090,22.498444 71.030685,23.666101 68.013947,24.863142 
	C63.120632,26.804804 57.682613,27.973806 53.477421,30.906849 
	C47.392658,35.150856 41.951786,40.493145 40.035210,48.460159 
	C39.112007,48.008335 38.497265,47.485573 37.882523,46.962807 
	C39.198475,37.192574 46.435833,32.183510 53.892696,27.600595 
	C60.678001,23.430416 68.360497,21.768793 76.666687,21.210083 
z"/>
<path fill="#474B6D" opacity="1.000000" stroke="none" 
	d="
M37.577911,47.244755 
	C38.497265,47.485573 39.112007,48.008335 39.884682,48.798889 
	C40.043514,49.787937 40.044411,50.509190 39.917931,51.890152 
	C40.458447,55.046169 41.126335,57.542480 41.794228,60.038795 
	C44.478271,67.050125 50.161091,71.247368 56.037975,75.282799 
	C57.358120,76.189301 58.545071,77.289780 59.951302,78.602249 
	C53.890076,78.945763 42.787018,70.989204 40.223499,64.149361 
	C38.236305,58.847233 35.649055,53.523510 37.577911,47.244755 
z"/>
<path fill="#4C598E" opacity="1.000000" stroke="none" 
	d="
M142.985779,152.971725 
	C138.846115,156.571228 134.706436,160.170731 129.956055,163.936768 
	C128.601151,164.432556 127.856956,164.761780 127.112762,165.091019 
	C127.068176,164.656113 127.023598,164.221207 127.051186,163.139923 
	C127.402107,161.622482 127.680870,160.751434 127.986481,159.893997 
	C128.013321,159.907623 127.991592,159.964371 128.197754,159.751465 
	C128.592728,159.192184 128.781540,158.845795 129.036957,158.389725 
	C129.218887,158.148651 129.358032,158.051300 129.837509,157.872742 
	C130.763779,157.162613 131.373520,156.567749 131.988953,155.989960 
	C131.994614,156.007034 131.967087,155.981796 132.229279,155.847015 
	C132.991425,155.125351 133.491364,154.538467 133.991302,153.951569 
	C133.991302,153.951569 134.015289,153.998825 134.266724,153.903687 
	C135.002151,153.485367 135.486160,153.162186 135.970154,152.839020 
	C136.107376,152.608917 136.270218,152.398651 136.955475,152.023529 
	C138.294022,150.882355 139.135788,149.925903 139.977539,148.969437 
	C139.977539,148.969437 140.002029,148.999252 140.274994,148.929810 
	C141.627304,147.125168 146.682770,149.898621 144.951767,144.976669 
	C144.951767,144.976669 144.976685,144.950485 145.160217,144.820953 
	C145.568619,144.487061 145.775421,144.265808 145.964142,144.027634 
	C145.964142,144.027634 145.982895,143.979477 146.338501,143.968475 
	C147.134949,143.963943 147.575806,143.970413 148.134781,144.020721 
	C148.252899,144.064545 148.625885,144.083664 148.625885,144.083664 
	C148.625885,144.083664 148.986053,143.977753 148.984558,143.979584 
	C148.983078,143.981430 148.977829,143.962601 149.306671,144.059952 
	C150.486725,144.503281 151.337952,144.849258 152.189178,145.195221 
	C150.043320,147.022491 147.897461,148.849762 145.189270,150.956726 
	C144.079880,151.814850 143.532837,152.393295 142.985779,152.971725 
z"/>
<path fill="#2D365A" opacity="1.000000" stroke="none" 
	d="
M318.087646,248.462463 
	C318.188385,249.228241 318.131378,249.705292 318.037537,250.540253 
	C313.032623,247.141464 308.076172,243.369263 303.093353,239.632217 
	C297.455261,235.403732 291.765747,231.243164 286.165192,226.965805 
	C285.028595,226.097748 284.189026,224.840805 283.117432,223.443878 
	C283.523254,223.083740 284.024170,223.042892 284.872803,223.173843 
	C295.139008,230.746948 305.063568,238.140182 314.967224,245.561325 
	C316.017548,246.348373 316.945282,247.298996 318.087646,248.462463 
z"/>
<path fill="#5A5A70" opacity="1.000000" stroke="none" 
	d="
M46.049404,128.482819 
	C46.388054,129.972153 46.934818,131.927338 46.939125,133.883698 
	C47.008419,165.354767 47.017582,196.825989 46.999210,228.297150 
	C46.998253,229.940323 46.629383,231.583267 46.262970,233.600739 
	C46.064476,198.966507 46.034805,163.957855 46.049404,128.482819 
z"/>
<path fill="#56566F" opacity="1.000000" stroke="none" 
	d="
M252.978745,192.982803 
	C251.515671,199.425949 256.233246,202.545074 260.096985,206.490631 
	C252.918259,205.256577 250.984894,202.953247 250.992157,196.043243 
	C251.005402,183.440445 250.995911,170.837601 250.995911,157.216995 
	C248.773361,158.727936 247.229996,159.777161 245.245483,160.812958 
	C244.804352,160.799530 244.529007,160.507263 244.673096,160.207001 
	C247.691513,157.910995 250.565842,155.915253 253.440170,153.919525 
	C253.762802,154.063568 253.978500,154.303665 254.004684,155.160477 
	C253.716415,156.488754 253.510742,157.296356 253.305069,158.103958 
	C253.238632,158.535187 253.172211,158.966415 252.850998,160.087738 
	C252.723724,171.512817 252.851242,182.247818 252.978745,192.982803 
z"/>
<path fill="#5A6485" opacity="1.000000" stroke="none" 
	d="
M263.701294,17.154205 
	C264.049347,18.045595 264.047516,19.003193 264.056030,20.309174 
	C261.655518,22.346188 259.190033,23.962677 256.844513,25.737673 
	C250.997803,30.162195 250.621796,36.999481 248.692291,43.714539 
	C247.498672,44.042816 246.820755,44.025352 246.142822,44.007889 
	C246.379578,33.625256 250.320389,25.441147 259.869965,20.436199 
	C261.221130,19.728060 262.200134,18.309925 263.701294,17.154205 
z"/>
<path fill="#4F5E84" opacity="1.000000" stroke="none" 
	d="
M48.992954,91.952393 
	C50.597076,91.642990 52.318043,91.058708 54.040997,91.052788 
	C74.671776,90.981979 95.306480,91.206612 115.931396,90.848877 
	C121.396500,90.754089 124.593216,92.840462 126.538635,97.660034 
	C125.476822,97.994995 124.783363,97.951546 124.089897,97.908096 
	C124.089897,97.908096 124.047134,97.901573 123.926727,97.659157 
	C123.217857,96.930992 122.629395,96.445244 122.040939,95.959488 
	C122.040939,95.959488 122.013550,95.973061 121.900558,95.641579 
	C120.198509,94.550041 118.609459,93.789986 116.642410,92.859344 
	C113.974663,92.462479 111.685448,92.046196 109.395058,92.039680 
	C89.377411,91.982727 69.359566,91.999016 49.341774,91.993576 
	C49.341774,91.993576 49.110722,91.946228 48.992954,91.952393 
z"/>
<path fill="#43507B" opacity="1.000000" stroke="none" 
	d="
M147.358032,162.898102 
	C148.374069,160.835724 149.323898,158.262360 151.105759,156.559830 
	C156.507523,151.398529 162.368927,146.716400 167.734650,141.520615 
	C169.103790,140.194809 169.299774,137.657486 170.029297,135.331329 
	C173.937027,137.191040 174.083664,139.269897 170.500839,142.322296 
	C162.724457,148.947449 155.262665,155.941864 147.358032,162.898102 
z"/>
<path fill="#4B5984" opacity="1.000000" stroke="none" 
	d="
M161.111588,139.094864 
	C159.599930,139.953537 158.088257,140.812210 156.082153,141.665207 
	C155.052368,140.768295 154.517029,139.877060 153.984222,138.647141 
	C153.974548,137.857300 153.962357,137.406143 153.950165,136.954971 
	C153.950165,136.954971 153.982910,136.949127 154.251343,136.818848 
	C155.001266,136.038391 155.482742,135.388199 155.964233,134.738022 
	C156.002838,134.380569 156.041428,134.023102 156.451050,133.369537 
	C160.731720,132.542007 162.252350,130.745728 160.049332,126.977943 
	C162.318100,128.449585 164.586884,129.921219 166.811554,131.930084 
	C166.959930,132.972229 167.152435,133.477142 167.344925,133.982056 
	C166.948532,133.916000 166.552124,133.849930 165.568192,133.478516 
	C164.340607,133.839813 163.700546,134.506454 163.060486,135.173096 
	C163.060486,135.173096 163.008545,135.603714 162.733170,135.943054 
	C162.009048,137.219894 161.560318,138.157379 161.111588,139.094864 
z"/>
<path fill="#41466A" opacity="1.000000" stroke="none" 
	d="
M246.098602,44.264732 
	C246.820755,44.025352 247.498672,44.042816 248.514648,44.063950 
	C249.349686,50.904808 252.995560,56.007629 257.779114,60.545856 
	C259.008087,61.711800 259.898987,63.234074 260.895966,64.858139 
	C253.472305,62.082386 249.026672,56.524220 246.937561,48.234680 
	C246.665833,46.699013 246.395294,45.868534 246.124756,45.038055 
	C246.101318,44.865898 246.077866,44.693741 246.098602,44.264732 
z"/>
<path fill="#5A6485" opacity="1.000000" stroke="none" 
	d="
M319.536407,82.121811 
	C320.004333,82.173874 319.954468,82.559502 319.472717,82.757309 
	C302.583191,82.980347 286.175110,82.966431 269.767883,83.076202 
	C267.503143,83.091354 265.242462,83.719101 262.979919,84.063248 
	C262.979919,84.063240 262.938477,84.467987 262.940491,84.694870 
	C262.942535,84.921753 262.925751,84.908180 262.925751,84.908173 
	C262.528076,84.892769 262.130402,84.877365 261.187622,84.747070 
	C260.115723,84.453880 259.588928,84.275581 259.062103,84.097290 
	C258.868317,84.070847 258.674500,84.044395 258.189606,83.980179 
	C259.306732,83.288925 260.712067,82.073990 262.123535,82.066757 
	C281.104675,81.969460 300.086700,82.040474 319.536407,82.121811 
z"/>
<path fill="#536EAB" opacity="1.000000" stroke="none" 
	d="
M124.079742,98.314102 
	C124.783363,97.951546 125.476822,97.994995 126.516922,98.016846 
	C127.168137,98.200439 127.472717,98.405632 127.871735,99.122414 
	C130.688324,101.412659 133.410492,103.191322 136.132660,104.969978 
	C136.437973,105.042389 136.679657,105.207794 137.084442,105.884857 
	C137.564835,106.526367 137.818497,106.749207 138.072174,106.972038 
	C138.072174,106.972038 138.013641,106.985901 138.110184,107.278442 
	C139.157013,108.370102 140.107315,109.169228 141.057602,109.968346 
	C141.057602,109.968346 141.004532,109.992615 141.095673,110.282326 
	C141.466751,111.164215 141.746704,111.756393 142.026657,112.348572 
	C140.148636,111.514282 138.167252,110.853172 136.415466,109.807411 
	C133.355850,107.980919 130.255920,106.135971 127.531013,103.868408 
	C126.005524,102.598961 125.199684,100.464706 124.079742,98.314102 
z"/>
<path fill="#2D365A" opacity="1.000000" stroke="none" 
	d="
M156.140793,177.955399 
	C161.421249,182.102829 166.764984,186.173538 171.944077,190.443893 
	C173.520554,191.743774 174.643295,193.593933 176.038116,195.535217 
	C171.713028,192.679886 167.337265,189.462509 162.928848,186.290497 
	C160.559235,184.585449 158.133575,182.958282 155.410034,180.860626 
	C155.613449,179.676788 151.962036,177.145493 156.140793,177.955399 
z"/>
<path fill="#51618A" opacity="1.000000" stroke="none" 
	d="
M105.899307,27.655556 
	C103.372543,27.278973 100.725258,26.520102 98.053093,25.862272 
	C92.524681,24.501291 86.983025,23.194080 81.204865,21.600979 
	C88.928596,19.922701 96.344101,22.136063 103.633682,24.917192 
	C104.521217,25.255812 105.064629,26.496429 105.899307,27.655556 
z"/>
<path fill="#404A79" opacity="1.000000" stroke="none" 
	d="
M116.280731,67.775497 
	C115.937775,67.454620 115.912575,67.012772 115.883011,66.238602 
	C121.277542,58.397842 122.543053,50.374531 119.134232,41.354630 
	C119.631187,40.972157 119.882957,40.973492 120.134727,40.974831 
	C125.417244,49.504242 123.854095,61.297573 116.280731,67.775497 
z"/>
<path fill="#4B5984" opacity="1.000000" stroke="none" 
	d="
M206.432312,195.947723 
	C205.866913,195.823441 205.598236,195.541489 205.127655,195.047546 
	C207.608673,189.441818 211.967300,185.964920 217.774414,183.929260 
	C214.271561,187.943756 210.500290,191.866913 206.432312,195.947723 
z"/>
<path fill="#56566F" opacity="1.000000" stroke="none" 
	d="
M227.511642,176.678680 
	C229.383972,174.200455 231.447372,171.530869 233.763367,169.102127 
	C236.261429,166.482452 238.995865,164.088181 242.153229,161.294952 
	C243.295868,160.831955 243.912430,160.669601 244.529007,160.507263 
	C244.529007,160.507263 244.804352,160.799530 244.941727,160.945923 
	C239.324051,166.259323 233.569000,171.426346 227.511642,176.678680 
z"/>
<path fill="#352B31" opacity="1.000000" stroke="none" 
	d="
M74.255379,283.253296 
	C74.680527,283.300751 75.884048,283.634735 75.897682,284.011749 
	C76.023926,287.501862 75.883408,291.000549 75.946617,294.494476 
	C75.990639,296.927368 75.513451,299.794739 79.350372,299.918579 
	C83.151108,300.041229 83.057571,297.437073 82.927818,294.401428 
	C82.986763,293.050659 83.087151,292.117798 83.187538,291.184937 
	C83.436935,291.198761 83.686333,291.212585 83.935730,291.226410 
	C83.935730,293.100189 83.837830,294.980255 83.958199,296.846283 
	C84.148453,299.795624 82.866608,301.044189 79.923164,300.980469 
	C77.245872,300.922516 75.037064,300.775970 75.040520,297.143890 
	C75.044823,292.616058 74.684624,288.087830 74.255379,283.253296 
z"/>
<path fill="#41466A" opacity="1.000000" stroke="none" 
	d="
M302.548065,70.919502 
	C302.984314,71.125938 302.989685,71.321953 303.000854,71.812088 
	C295.474457,72.529434 287.942200,72.952667 280.203735,72.988121 
	C283.258911,72.372650 286.521759,72.163528 289.781342,71.912582 
	C293.894653,71.595909 298.005341,71.245140 302.548065,70.919502 
z"/>
<path fill="#576DB1" opacity="1.000000" stroke="none" 
	d="
M159.980255,126.751297 
	C162.252350,130.745728 160.731720,132.542007 156.474518,133.100891 
	C155.624771,132.202744 155.122559,131.277084 154.873505,130.257462 
	C155.126678,130.163498 155.490921,130.169617 155.490921,130.169617 
	C155.490921,130.169617 155.063629,129.942368 155.063629,129.942368 
	C155.088974,128.534927 155.114304,127.127495 155.473358,125.444519 
	C157.131454,125.469070 158.455841,125.769157 159.780212,126.069252 
	C159.780212,126.069252 159.911179,126.524658 159.980255,126.751297 
z"/>
<path fill="#2A2025" opacity="1.000000" stroke="none" 
	d="
M215.296814,300.223511 
	C223.088364,299.919037 223.012512,299.918457 223.077850,291.567444 
	C223.137390,283.957489 223.385773,276.349030 223.769623,268.392761 
	C223.971405,276.621948 223.964752,285.198303 223.934525,293.774628 
	C223.907166,301.533600 223.572525,301.793427 215.296814,300.223511 
z"/>
<path fill="#41466A" opacity="1.000000" stroke="none" 
	d="
M185.942047,203.400406 
	C189.597031,203.641052 193.331924,205.896667 197.388824,202.966888 
	C194.571945,209.426117 190.295670,209.717148 185.942047,203.400406 
z"/>
<path fill="#404A79" opacity="1.000000" stroke="none" 
	d="
M127.959625,159.880371 
	C127.680870,160.751434 127.402107,161.622482 127.002914,162.815460 
	C124.200859,162.114777 121.519241,161.092163 118.486092,160.001434 
	C118.362991,159.144394 118.591415,158.355499 118.992668,157.277573 
	C119.540138,157.020859 119.914787,157.053177 120.820816,157.358521 
	C123.554672,158.381165 125.757149,159.130768 127.959625,159.880371 
z"/>
<path fill="#2D365A" opacity="1.000000" stroke="none" 
	d="
M127.187836,165.405090 
	C127.856956,164.761780 128.601151,164.432556 129.650711,164.075226 
	C132.069611,165.924835 134.183121,167.802505 136.620773,170.142242 
	C136.975677,171.022797 137.006454,171.441315 137.037231,171.859833 
	C133.779129,169.812943 130.521011,167.766052 127.187836,165.405090 
z"/>
<path fill="#2A2025" opacity="1.000000" stroke="none" 
	d="
M214.761932,270.365356 
	C215.009705,279.712799 215.024506,289.402191 215.023865,299.562317 
	C214.675537,295.667389 214.118927,291.304382 214.066696,286.935303 
	C214.002045,281.528595 214.355911,276.116852 214.761932,270.365356 
z"/>
<path fill="#43507B" opacity="1.000000" stroke="none" 
	d="
M137.357391,171.779449 
	C137.006454,171.441315 136.975677,171.022797 136.916214,170.289948 
	C140.010315,167.649445 143.133118,165.323288 146.633606,163.021194 
	C143.900055,165.929855 140.788803,168.814453 137.357391,171.779449 
z"/>
<path fill="#352B31" opacity="1.000000" stroke="none" 
	d="
M44.728645,272.132843 
	C45.048664,280.925964 45.074577,290.042877 45.058952,299.636108 
	C44.663662,296.277374 44.066658,292.445618 44.014767,288.606445 
	C43.942051,283.226044 44.275082,277.840179 44.728645,272.132843 
z"/>
<path fill="#51618A" opacity="1.000000" stroke="none" 
	d="
M120.074493,40.608261 
	C119.882957,40.973492 119.631187,40.972157 118.999390,40.976189 
	C116.934814,38.398243 115.250259,35.814934 113.597473,32.873173 
	C115.757576,35.090378 117.885918,37.666035 120.074493,40.608261 
z"/>
<path fill="#5A5A70" opacity="1.000000" stroke="none" 
	d="
M156.172852,177.629181 
	C151.962036,177.145493 155.613449,179.676788 155.118637,180.691910 
	C151.530106,179.325745 150.788773,177.169098 154.051514,174.421204 
	C155.524521,173.180588 157.126190,172.092712 159.062317,170.920349 
	C159.065216,171.426254 158.675278,171.947357 158.138901,172.762207 
	C157.992462,173.055954 157.972107,173.006882 157.813858,173.175690 
	C157.441483,173.606567 157.227356,173.868637 157.013229,174.130722 
	C156.743790,175.188141 156.474350,176.245544 156.172852,177.629181 
z"/>
<path fill="#BAC6E1" opacity="1.000000" stroke="none" 
	d="
M275.710510,218.027328 
	C277.816254,217.735184 281.221649,215.364609 281.065521,220.738159 
	C279.287567,220.133926 277.604004,219.207901 275.710510,218.027328 
z"/>
<path fill="#4F5E84" opacity="1.000000" stroke="none" 
	d="
M135.985748,104.648659 
	C133.410492,103.191322 130.688324,101.412659 127.982628,99.379242 
	C130.612335,100.858757 133.225586,102.593048 135.985748,104.648659 
z"/>
<path fill="#5A5A70" opacity="1.000000" stroke="none" 
	d="
M46.085876,105.513908 
	C46.239727,111.104515 46.335670,117.156990 46.267120,123.583389 
	C46.077740,117.963470 46.052853,111.969620 46.085876,105.513908 
z"/>
<path fill="#4F5E84" opacity="1.000000" stroke="none" 
	d="
M153.050949,119.731361 
	C149.614151,119.833351 147.202728,118.110558 146.092560,114.274353 
	C148.332214,115.747360 150.626114,117.576492 153.050949,119.731361 
z"/>
<path fill="#4F5E84" opacity="1.000000" stroke="none" 
	d="
M159.763092,125.732376 
	C158.455841,125.769157 157.131454,125.469070 155.500732,125.022919 
	C155.194366,124.876854 155.112198,124.879837 155.016327,124.565567 
	C154.615356,123.127899 154.310257,122.004494 154.005157,120.881088 
	C155.918762,122.385887 157.832367,123.890694 159.763092,125.732376 
z"/>
<path fill="#8BA7D4" opacity="1.000000" stroke="none" 
	d="
M108.337265,199.029724 
	C107.602264,199.026596 107.179611,198.929031 106.449554,198.715271 
	C106.146454,198.207047 106.150749,197.814972 106.470779,197.081924 
	C107.260712,196.538162 107.734924,196.335403 108.209137,196.132660 
	C109.066711,196.285828 109.924286,196.439011 110.873489,196.803696 
	C110.193275,197.655243 109.421440,198.295258 108.337265,199.029724 
z"/>
<path fill="#5A5A70" opacity="1.000000" stroke="none" 
	d="
M46.078934,240.440338 
	C46.404385,243.072556 46.682438,246.150269 46.939289,249.678970 
	C46.622570,247.048584 46.327053,243.967209 46.078934,240.440338 
z"/>
<path fill="#51618A" opacity="1.000000" stroke="none" 
	d="
M113.252106,32.109043 
	C112.074402,31.757696 110.706291,31.146286 109.183472,30.225681 
	C110.373070,30.560654 111.717392,31.204817 113.252106,32.109043 
z"/>
<path fill="#576DB1" opacity="1.000000" stroke="none" 
	d="
M153.886581,120.649521 
	C154.310257,122.004494 154.615356,123.127899 154.987839,124.595200 
	C154.447861,123.629677 153.840500,122.320274 153.260132,120.615051 
	C153.447433,120.285477 153.607727,120.351715 153.886581,120.649521 
z"/>
<path fill="#51618A" opacity="1.000000" stroke="none" 
	d="
M108.946182,29.655882 
	C108.153885,29.484219 107.230118,29.010479 106.155319,28.251690 
	C106.941093,28.429028 107.877899,28.891417 108.946182,29.655882 
z"/>
<path fill="#4F5E84" opacity="1.000000" stroke="none" 
	d="
M140.949493,109.673561 
	C140.107315,109.169228 139.157013,108.370102 138.123962,107.251709 
	C138.974609,107.747879 139.907990,108.563324 140.949493,109.673561 
z"/>
<path fill="#5A5A70" opacity="1.000000" stroke="none" 
	d="
M163.988617,165.902924 
	C163.676102,166.956665 163.335876,167.670609 162.779434,168.601837 
	C162.807373,167.652237 163.051529,166.485352 163.604614,165.100708 
	C163.929367,165.109695 163.945145,165.336426 163.988617,165.902924 
z"/>
<path fill="#4F5E84" opacity="1.000000" stroke="none" 
	d="
M142.279968,112.269363 
	C141.746704,111.756393 141.466751,111.164215 141.108490,110.256111 
	C141.687317,110.394661 142.344482,110.849129 143.016083,111.654053 
	C142.864792,112.066391 142.699020,112.128265 142.279968,112.269363 
z"/>
<path fill="#5A6485" opacity="1.000000" stroke="none" 
	d="
M246.086273,45.387108 
	C246.395294,45.868534 246.665833,46.699013 246.951950,47.860329 
	C246.660965,47.372833 246.354385,46.554493 246.086273,45.387108 
z"/>
<path fill="#5A5A70" opacity="1.000000" stroke="none" 
	d="
M162.755035,168.460953 
	C162.296295,169.090729 161.614685,169.450928 160.554688,169.876923 
	C160.961609,169.358932 161.746887,168.775146 162.755035,168.460953 
z"/>
<path fill="#43507B" opacity="1.000000" stroke="none" 
	d="
M163.445709,134.941284 
	C163.700546,134.506454 164.340607,133.839813 165.282990,132.947464 
	C165.585327,132.721756 165.642944,132.725739 165.678162,132.711380 
	C165.085907,133.367844 164.458420,134.038666 163.445709,134.941284 
z"/>
<path fill="#5A5A70" opacity="1.000000" stroke="none" 
	d="
M47.033997,250.384552 
	C47.674042,250.066269 48.481827,250.041946 49.691959,250.047943 
	C49.130116,250.278336 48.165928,250.478409 47.033997,250.384552 
z"/>
<path fill="#090508" opacity="1.000000" stroke="none" 
	d="
M164.997482,283.000427 
	C164.932053,282.462677 164.871353,281.921509 164.899765,281.187256 
	C164.988876,280.994110 165.003571,281.005859 165.008148,281.340454 
	C165.011597,282.112671 165.010452,282.550323 165.009323,282.987976 
	C165.009323,282.987976 165.002197,282.997040 164.997482,283.000427 
z"/>
<path fill="#43507B" opacity="1.000000" stroke="none" 
	d="
M167.547745,133.850159 
	C167.152435,133.477142 166.959930,132.972229 167.005966,132.252243 
	C167.413193,132.597534 167.581879,133.157898 167.547745,133.850159 
z"/>
<path fill="#090508" opacity="1.000000" stroke="none" 
	d="
M181.500549,273.493988 
	C181.507187,273.514282 181.493927,273.473694 181.500549,273.493988 
z"/>
<path fill="#4F5E84" opacity="1.000000" stroke="none" 
	d="
M137.998932,106.710068 
	C137.818497,106.749207 137.564835,106.526367 137.171570,106.090866 
	C137.329895,106.068161 137.627792,106.258125 137.998932,106.710068 
z"/>
<path fill="#4F5E84" opacity="1.000000" stroke="none" 
	d="
M145.016754,112.689240 
	C144.808640,112.847038 144.539658,112.689507 144.119934,112.328827 
	C144.266586,112.262230 144.595505,112.344971 145.016754,112.689240 
z"/>
<path fill="#4F5E84" opacity="1.000000" stroke="none" 
	d="
M146.010162,113.716270 
	C145.824966,113.760101 145.565918,113.540398 145.170990,113.102821 
	C145.335495,113.074211 145.635910,113.263474 146.010162,113.716270 
z"/>
<path fill="#5A5A70" opacity="1.000000" stroke="none" 
	d="
M50.266953,249.988342 
	C50.264297,249.829834 50.536011,249.594986 51.018768,249.192261 
	C51.000317,249.320267 50.770821,249.616150 50.266953,249.988342 
z"/>
<path fill="#43507B" opacity="1.000000" stroke="none" 
	d="
M169.945984,134.726822 
	C169.703430,134.854568 169.441330,134.657898 169.108627,134.174591 
	C169.281525,134.129608 169.577652,134.301071 169.945984,134.726822 
z"/>
<path fill="#A5C3F3" opacity="1.000000" stroke="none" 
	d="
M277.986969,135.017670 
	C276.398468,136.589569 274.164368,137.887543 273.356781,139.790802 
	C271.711151,143.669113 268.984344,144.721619 265.004150,144.091980 
	C267.056885,141.529510 269.333435,139.300446 271.609985,137.071381 
	C275.149017,133.594131 278.643494,130.069458 282.259186,126.673820 
	C283.135345,125.850960 284.411285,125.453751 285.891663,125.237411 
	C286.326782,126.478065 286.373566,127.342148 286.420349,128.206223 
	C286.341248,128.515594 286.348053,128.823059 286.403076,129.777008 
	C286.354187,134.345459 286.342957,138.265564 286.331726,142.185654 
	C286.239441,164.143616 286.146332,186.101562 286.055695,208.059525 
	C286.040588,211.720322 286.036133,215.381134 285.966064,219.503693 
	C285.240540,218.242279 284.004791,216.521805 283.996674,214.795547 
	C283.877045,189.418350 283.922455,164.040390 283.924347,138.662613 
	C283.924744,133.621094 282.310974,132.420425 278.220032,134.780350 
	C278.000610,135.000900 277.986969,135.017670 277.986969,135.017670 
z"/>
<path fill="#324D84" opacity="1.000000" stroke="none" 
	d="
M320.001892,85.468307 
	C320.345093,87.282898 320.959839,89.565666 320.962494,91.849159 
	C321.019012,140.323196 321.014191,188.797302 320.980988,237.271393 
	C320.979645,239.246323 320.584198,241.221008 320.211578,243.567047 
	C320.026733,194.427765 320.002502,144.917236 319.979309,95.406708 
	C319.977844,92.250076 319.985168,89.093452 320.001892,85.468307 
z"/>
<path fill="#4A6AA9" opacity="1.000000" stroke="none" 
	d="
M271.255402,137.142456 
	C269.333435,139.300446 267.056885,141.529510 264.592499,144.027283 
	C264.404633,144.295990 264.377258,144.468643 264.140747,144.581635 
	C261.245758,147.095871 258.587341,149.497131 255.928909,151.898376 
	C255.126099,152.385468 254.323273,152.872528 253.480316,153.639557 
	C250.565842,155.915253 247.691513,157.910995 244.673096,160.207001 
	C243.912430,160.669601 243.295868,160.831955 242.360657,161.037201 
	C242.822357,155.807388 245.657471,152.524506 250.967270,151.225021 
	C252.383255,150.878479 253.607071,149.499939 254.777283,148.438812 
	C259.672272,144.000183 263.591187,138.180603 271.255402,137.142456 
z"/>
<path fill="#5279BB" opacity="1.000000" stroke="none" 
	d="
M304.961304,84.262817 
	C307.034027,85.067444 309.106750,85.872063 311.997040,86.994064 
	C309.277924,86.994064 307.141693,87.056129 305.010010,86.983322 
	C295.760284,86.667374 286.510162,86.349319 277.265015,85.927162 
	C276.014099,85.870041 274.790314,85.218704 273.760315,84.536362 
	C284.298218,84.241074 294.629761,84.251938 304.961304,84.262817 
z"/>
<path fill="#3E5288" opacity="1.000000" stroke="none" 
	d="
M305.426849,84.196335 
	C294.629761,84.251938 284.298218,84.241074 273.502167,84.278000 
	C269.989716,84.242569 266.941772,84.159340 263.436890,84.069679 
	C265.242462,83.719101 267.503143,83.091354 269.767883,83.076202 
	C286.175110,82.966431 302.583191,82.980347 319.449677,82.950363 
	C319.901184,83.170135 319.894043,83.394669 319.868134,83.957268 
	C315.197052,84.240173 310.544739,84.185020 305.426849,84.196335 
z"/>
<path fill="#576DB1" opacity="1.000000" stroke="none" 
	d="
M176.939880,175.648621 
	C173.040497,172.913620 169.095169,169.815338 165.083160,166.374313 
	C166.098068,165.716324 167.179672,165.401077 168.589478,165.012848 
	C170.043106,166.387207 171.173843,167.830490 172.292694,169.282944 
	C173.831161,171.280136 175.360626,173.284225 176.939880,175.648621 
z"/>
<path fill="#576DB1" opacity="1.000000" stroke="none" 
	d="
M191.306335,145.008804 
	C193.812134,142.413086 196.609741,139.886871 199.703857,137.229553 
	C200.175537,142.891846 196.266281,144.384613 191.306335,145.008804 
z"/>
<path fill="#576DB1" opacity="1.000000" stroke="none" 
	d="
M169.313919,164.888458 
	C171.389603,162.724884 173.834702,160.522049 176.597046,158.239075 
	C176.979446,163.064545 173.152191,163.763199 169.313919,164.888458 
z"/>
<path fill="#4A6AA9" opacity="1.000000" stroke="none" 
	d="
M286.678711,141.985046 
	C286.342957,138.265564 286.354187,134.345459 286.567017,129.942520 
	C287.604919,133.552277 290.440155,137.603180 286.678711,141.985046 
z"/>
<path fill="#4A6AA9" opacity="1.000000" stroke="none" 
	d="
M286.691986,128.069138 
	C286.373566,127.342148 286.326782,126.478065 286.285339,125.285240 
	C286.514984,125.948341 286.739319,126.940201 286.691986,128.069138 
z"/>
<path fill="#4A6AA9" opacity="1.000000" stroke="none" 
	d="
M262.932861,84.898163 
	C263.203552,85.251244 263.495148,85.620667 263.748840,86.014503 
	C263.777954,86.059708 263.595398,86.241257 263.511017,86.359589 
	C263.312103,86.002754 263.113159,85.645905 262.919983,85.098618 
	C262.925751,84.908180 262.942535,84.921753 262.932861,84.898163 
z"/>
<path fill="#4A6AA9" opacity="1.000000" stroke="none" 
	d="
M259.302307,84.237259 
	C259.588928,84.275581 260.115723,84.453880 260.889709,84.768738 
	C260.605408,84.729271 260.073975,84.553253 259.302307,84.237259 
z"/>
<path fill="#576DB1" opacity="1.000000" stroke="none" 
	d="
M189.303482,145.902130 
	C189.511703,145.715408 189.973068,145.435226 190.694275,145.075668 
	C190.488266,145.267090 190.022446,145.537872 189.303482,145.902130 
z"/>
<path fill="#536EAB" opacity="1.000000" stroke="none" 
	d="
M117.020401,93.029930 
	C118.609459,93.789986 120.198509,94.550041 121.915161,95.627892 
	C121.854088,95.952682 121.665413,95.959686 120.863510,95.808418 
	C118.496582,95.430855 116.742874,95.211555 114.989166,94.992256 
	C114.243172,94.991463 113.497177,94.990677 111.908882,94.991951 
	C92.958450,94.996803 74.850220,94.975159 56.742348,95.045410 
	C55.172112,95.051498 53.604225,95.663986 52.035248,95.994797 
	C52.025116,112.151184 51.776844,128.312103 52.084209,144.462448 
	C52.308643,156.255432 53.737167,168.033707 53.756413,179.819977 
	C53.774227,190.733765 52.412163,201.643280 52.107899,212.567230 
	C51.980087,217.155945 52.887493,221.794739 53.550739,226.377991 
	C54.159050,230.581604 54.146965,234.411530 49.503487,236.900238 
	C49.126564,211.949265 49.027962,186.867218 49.003235,161.785080 
	C48.980965,139.192673 49.039665,116.600189 49.550430,93.535400 
	C72.365608,93.052025 94.693001,93.040977 117.020401,93.029930 
z"/>
<path fill="#A5C3F3" opacity="1.000000" stroke="none" 
	d="
M110.775024,149.836777 
	C110.006577,153.639618 108.355820,157.177536 108.181740,160.786682 
	C107.766090,169.404404 108.113602,178.056625 107.994255,186.692719 
	C107.967880,188.601227 107.284439,190.500656 106.643463,192.655762 
	C106.383377,192.907257 106.155846,192.884811 106.118393,192.460449 
	C106.043304,179.023010 106.005676,166.009949 105.968033,152.996887 
	C106.207809,151.074661 106.447578,149.152420 106.774338,146.532776 
	C108.372253,147.827835 109.468170,148.716049 110.775024,149.836777 
z"/>
<path fill="#5279BB" opacity="1.000000" stroke="none" 
	d="
M52.500282,95.994331 
	C53.604225,95.663986 55.172112,95.051498 56.742348,95.045410 
	C74.850220,94.975159 92.958450,94.996803 111.535889,94.994331 
	C109.568413,95.328438 107.132965,95.939735 104.694633,95.951477 
	C87.451866,96.034538 70.208496,95.994583 52.500282,95.994331 
z"/>
<path fill="#4C598E" opacity="1.000000" stroke="none" 
	d="
M105.797188,153.372620 
	C106.005676,166.009949 106.043304,179.023010 106.009354,192.494812 
	C105.637779,189.006592 105.076988,185.058777 105.090332,181.112900 
	C105.121162,171.990891 105.430153,162.869812 105.797188,153.372620 
z"/>
<path fill="#536EAB" opacity="1.000000" stroke="none" 
	d="
M127.986473,159.893997 
	C125.757149,159.130768 123.554672,158.381165 121.101715,157.386566 
	C124.416740,156.110367 127.982254,155.079147 131.810440,154.452850 
	C132.037766,155.232452 132.002426,155.607117 131.967087,155.981796 
	C131.967087,155.981796 131.994614,156.007034 131.684128,156.094330 
	C130.756088,156.783752 130.138535,157.385864 129.520996,157.987991 
	C129.358032,158.051300 129.218887,158.148651 128.801712,158.581299 
	C128.330444,159.243149 128.161011,159.603760 127.991592,159.964371 
	C127.991592,159.964371 128.013321,159.907623 127.986473,159.893997 
z"/>
<path fill="#536EAB" opacity="1.000000" stroke="none" 
	d="
M56.549885,241.037949 
	C55.660706,242.260284 54.405727,243.496994 53.006165,244.957794 
	C47.314327,247.444672 49.380089,243.094788 49.112511,240.425293 
	C51.500725,240.376434 53.842407,240.714386 56.549885,241.037949 
z"/>
<path fill="#404A79" opacity="1.000000" stroke="none" 
	d="
M153.625336,137.055344 
	C153.962357,137.406143 153.974548,137.857300 153.810501,138.802246 
	C153.406601,139.508041 153.192322,139.732819 152.816605,140.133575 
	C152.411880,140.518219 152.195938,140.752518 151.823700,141.166473 
	C151.424225,141.554108 151.187439,141.766571 150.693832,142.111893 
	C149.955612,142.822937 149.466721,143.392761 148.977829,143.962601 
	C148.977829,143.962601 148.983078,143.981430 148.742218,143.978180 
	C148.501373,143.974945 148.016663,143.976898 148.016663,143.976898 
	C147.575806,143.970413 147.134949,143.963943 146.363907,143.963776 
	C148.455994,141.698624 150.878250,139.427170 153.625336,137.055344 
z"/>
<path fill="#404A79" opacity="1.000000" stroke="none" 
	d="
M144.613098,145.024094 
	C146.682770,149.898621 141.627304,147.125168 140.259094,148.919525 
	C141.404984,147.676315 142.839722,146.373917 144.613098,145.024094 
z"/>
<path fill="#404A79" opacity="1.000000" stroke="none" 
	d="
M139.673630,149.079132 
	C139.135788,149.925903 138.294022,150.882355 137.103897,151.889709 
	C137.626923,151.023346 138.498322,150.106079 139.673630,149.079132 
z"/>
<path fill="#5279BB" opacity="1.000000" stroke="none" 
	d="
M115.328690,95.155487 
	C116.742874,95.211555 118.496582,95.430855 120.580368,95.813568 
	C119.163033,95.757568 117.415619,95.538147 115.328690,95.155487 
z"/>
<path fill="#536EAB" opacity="1.000000" stroke="none" 
	d="
M122.174454,96.219116 
	C122.629395,96.445244 123.217857,96.930992 123.936737,97.678253 
	C123.480759,97.452766 122.894363,96.965759 122.174454,96.219116 
z"/>
<path fill="#A5C3F3" opacity="1.000000" stroke="none" 
	d="
M108.011688,195.963867 
	C107.734924,196.335403 107.260712,196.538162 106.533211,196.793091 
	C106.308754,196.434692 106.337585,196.024139 106.426506,195.309052 
	C106.929131,195.268066 107.371681,195.531586 108.011688,195.963867 
z"/>
<path fill="#404A79" opacity="1.000000" stroke="none" 
	d="
M132.229279,155.847015 
	C132.002426,155.607117 132.037766,155.232452 132.084991,154.578796 
	C132.517181,154.219986 132.937485,154.140152 133.674561,154.005951 
	C133.491364,154.538467 132.991425,155.125351 132.229279,155.847015 
z"/>
<path fill="#404A79" opacity="1.000000" stroke="none" 
	d="
M155.713242,134.911530 
	C155.482742,135.388199 155.001266,136.038391 154.245331,136.834015 
	C154.467987,136.347977 154.965134,135.716522 155.713242,134.911530 
z"/>
<path fill="#404A79" opacity="1.000000" stroke="none" 
	d="
M135.687561,152.925812 
	C135.486160,153.162186 135.002151,153.485367 134.240463,153.900116 
	C134.443497,153.665329 134.924225,153.338959 135.687561,152.925812 
z"/>
<path fill="#404A79" opacity="1.000000" stroke="none" 
	d="
M145.766479,144.147064 
	C145.775421,144.265808 145.568619,144.487061 145.168823,144.836853 
	C145.129776,144.698868 145.321396,144.460281 145.766479,144.147064 
z"/>
<path fill="#41466A" opacity="1.000000" stroke="none" 
	d="
M305.694153,69.611023 
	C305.232239,69.971458 304.435272,70.431915 303.290710,70.942398 
	C303.748444,70.565300 304.553772,70.138168 305.694153,69.611023 
z"/>
<path fill="#51618A" opacity="1.000000" stroke="none" 
	d="
M41.953308,59.753677 
	C41.126335,57.542480 40.458447,55.046169 39.905106,52.251446 
	C40.717232,54.458210 41.414810,56.963387 41.953308,59.753677 
z"/>
<path fill="#A3B6D9" opacity="1.000000" stroke="none" 
	d="
M255.320038,184.752563 
	C255.236725,177.214783 255.440811,169.449814 255.806427,161.295654 
	C256.304260,165.318436 256.640594,169.730423 256.944214,174.712631 
	C256.871796,175.500992 256.892822,175.713943 256.974609,175.921692 
	C256.518890,178.789581 256.063171,181.657486 255.320038,184.752563 
z"/>
<path fill="#A5C3F3" opacity="1.000000" stroke="none" 
	d="
M256.202148,151.998062 
	C258.587341,149.497131 261.245758,147.095871 264.225464,144.602966 
	C264.761627,150.131195 260.326294,150.803589 256.202148,151.998062 
z"/>
<path fill="#A1AAC0" opacity="1.000000" stroke="none" 
	d="
M253.591293,158.095306 
	C253.510742,157.296356 253.716415,156.488754 254.080750,155.396515 
	C254.730103,155.574463 255.220810,156.037048 255.654999,156.895966 
	C255.391342,157.503067 255.197037,157.725098 255.015625,157.958405 
	C254.636261,158.001144 254.256882,158.043900 253.591293,158.095306 
z"/>
<path fill="#A3B6D9" opacity="1.000000" stroke="none" 
	d="
M255.263885,157.984116 
	C255.197037,157.725098 255.391342,157.503067 255.757172,157.138062 
	C256.064392,157.234177 256.119019,157.502487 256.044159,157.925598 
	C256.008545,158.062454 255.512146,158.009827 255.263885,157.984116 
z"/>
<path fill="#BAC6E1" opacity="1.000000" stroke="none" 
	d="
M256.972748,175.710510 
	C256.892822,175.713943 256.871796,175.500992 256.943542,175.179932 
	C256.975555,175.076981 256.970886,175.499329 256.972748,175.710510 
z"/>
<path fill="#A5C3F3" opacity="1.000000" stroke="none" 
	d="
M278.008972,134.994080 
	C278.017303,134.987274 278.022644,135.060516 278.004822,135.039093 
	C277.986969,135.017670 278.000610,135.000900 278.008972,134.994080 
z"/>
<path fill="#000000" opacity="1.000000" stroke="none" 
	d="
M109.662430,293.386230 
	C109.917877,293.318359 110.137344,293.366302 110.356819,293.414276 
	C110.316277,293.542175 110.275726,293.670044 110.235176,293.797943 
	C110.032272,293.699310 109.829369,293.600708 109.662430,293.386230 
z"/>
<path fill="#000000" opacity="1.000000" stroke="none" 
	d="
M309.988220,295.875000 
	C309.851593,295.632385 309.834442,295.396423 309.817291,295.160492 
	C309.947815,295.167267 310.078369,295.174072 310.208893,295.180878 
	C310.175140,295.414490 310.141388,295.648071 309.988220,295.875000 
z"/>
<path fill="#000000" opacity="1.000000" stroke="none" 
	d="
M165.186859,282.887207 
	C165.010452,282.550323 165.011597,282.112671 165.013763,281.347107 
	C165.131348,281.608307 165.247879,282.197388 165.186859,282.887207 
z"/>
<path fill="#404A79" opacity="1.000000" stroke="none" 
	d="
M157.215881,173.972900 
	C157.227356,173.868637 157.441483,173.606567 157.840302,173.170959 
	C157.822830,173.269989 157.620682,173.542526 157.215881,173.972900 
z"/>
<path fill="#4B5984" opacity="1.000000" stroke="none" 
	d="
M149.306671,144.059952 
	C149.466721,143.392761 149.955612,142.822937 150.989288,142.275055 
	C152.394135,142.545471 153.254166,142.793945 154.114212,143.042419 
	C153.638611,143.655197 153.163010,144.267960 152.438293,145.037979 
	C151.337952,144.849258 150.486725,144.503281 149.306671,144.059952 
z"/>
<path fill="#4C598E" opacity="1.000000" stroke="none" 
	d="
M154.371765,142.953842 
	C153.254166,142.793945 152.394135,142.545471 151.238617,142.133835 
	C151.187439,141.766571 151.424225,141.554108 151.996857,141.001770 
	C152.568054,140.446991 152.785141,140.213699 152.991455,139.970383 
	C153.192322,139.732819 153.406601,139.508041 153.807983,139.140930 
	C154.517029,139.877060 155.052368,140.768295 155.826050,141.870346 
	C155.586044,142.342529 155.107681,142.603897 154.371765,142.953842 
z"/>
<path fill="#4C598E" opacity="1.000000" stroke="none" 
	d="
M161.358978,138.909729 
	C161.560318,138.157379 162.009048,137.219894 162.688614,136.155304 
	C162.481735,136.926971 162.044052,137.825775 161.358978,138.909729 
z"/>
<path fill="#404A79" opacity="1.000000" stroke="none" 
	d="
M143.243011,152.822266 
	C143.532837,152.393295 144.079880,151.814850 144.915726,151.126190 
	C144.636414,151.568222 144.068329,152.120514 143.243011,152.822266 
z"/>
<path fill="#3E5288" opacity="1.000000" stroke="none" 
	d="
M116.642410,92.859344 
	C94.693001,93.040977 72.365608,93.052025 49.582306,93.072815 
	C49.154858,92.899918 49.183315,92.717270 49.276772,92.264099 
	C69.359566,91.999016 89.377411,91.982727 109.395058,92.039680 
	C111.685448,92.046196 113.974663,92.462479 116.642410,92.859344 
z"/>
<path fill="#463C52" opacity="1.000000" stroke="none" 
	d="
M253.039551,192.518951 
	C252.851242,182.247818 252.723724,171.512817 252.761719,160.402557 
	C252.984924,170.703232 253.042633,181.379181 253.039551,192.518951 
z"/>
<path fill="#404A79" opacity="1.000000" stroke="none" 
	d="
M129.837509,157.872742 
	C130.138535,157.385864 130.756088,156.783752 131.678467,156.077271 
	C131.373520,156.567749 130.763779,157.162613 129.837509,157.872742 
z"/>
<path fill="#404A79" opacity="1.000000" stroke="none" 
	d="
M128.197754,159.751465 
	C128.161011,159.603760 128.330444,159.243149 128.735107,158.690979 
	C128.781540,158.845795 128.592728,159.192184 128.197754,159.751465 
z"/>
<path fill="#4B5984" opacity="1.000000" stroke="none" 
	d="
M148.134781,144.020721 
	C148.016663,143.976898 148.501373,143.974945 148.743713,143.976349 
	C148.986053,143.977753 148.625885,144.083664 148.625885,144.083664 
	C148.625885,144.083664 148.252899,144.064545 148.134781,144.020721 
z"/>
<path fill="#4B70B5" opacity="1.000000" stroke="none" 
	d="
M155.040848,129.968597 
	C155.063629,129.942368 155.490921,130.169617 155.490921,130.169617 
	C155.490921,130.169617 155.126678,130.163498 155.051056,130.106583 
	C154.975433,130.049667 155.018066,129.994812 155.040848,129.968597 
z"/>
<path fill="#4B5984" opacity="1.000000" stroke="none" 
	d="
M152.816605,140.133575 
	C152.785141,140.213699 152.568054,140.446991 152.167053,140.834961 
	C152.195938,140.752518 152.411880,140.518219 152.816605,140.133575 
z"/>
</svg>